<svg version="1.1" 
	xmlns="http://www.w3.org/2000/svg" 
	xmlns:xlink="http://www.w3.org/1999/xlink" 
	xmlns:a="http://ns.adobe.com/AdobeSVGViewerExtensions/3.0/" x="0px" y="0px" viewBox="-17 -17 192 192" enable-background="new 0 0 400 400" xml:space="preserve">
	<defs>
		<filter id="noise">
			<feTurbulence type="fractalNoise" baseFrequency="0.15" result="noisy" />
			<feDisplacementMap in="SourceGraphic" in2="noisy" scale="6" xChannelSelector="G" yChannelSelector="R"/>
		</filter>
		<rect id="SVGID_1_" width="173" height="173"/>
	</defs>
	<g filter="url(#noise)" transform="translate(-10,0)">
		<clipPath id="SVGID_2_">
			<use xlink:href="#SVGID_1_"  overflow="visible"/>
		</clipPath>
		<g clip-path="url(#SVGID_2_)">
			<path fill="#DF2B13" d="M83.9,2.1c23.5,0,47,0,70.6-0.1c2.1,0,2.5,0.6,2.3,2.6c-1.2,12.8-2.3,25.7-3.5,38.5
				c-1.1,12.8-2.3,25.5-3.4,38.3c-1.2,12.9-2.3,25.8-3.5,38.7c-0.9,9.8-1.8,19.5-2.5,29.3c-0.1,1.6-0.6,2.3-2.2,2.7
				c-18.7,5.1-37.3,10.3-56,15.5c-1.3,0.4-2.6,0.4-3.9,0c-18.7-5.2-37.4-10.5-56.2-15.6c-1.3-0.4-1.8-0.9-1.9-2.3
				c-1.3-14.7-2.6-29.4-3.9-44.1c-1.5-17.3-3-34.6-4.6-52c-1.3-14.3-2.6-28.6-3.9-42.9c-0.2-2.3-0.3-4.7-0.6-7
				c-0.2-1.5,0.4-1.7,1.6-1.7c1.4,0.1,2.8,0,4.2,0C39,2.1,61.5,2.1,83.9,2.1z M83.8,117.2c-6.6-1.4-13.1-3.5-19.6-5.1
				c-1-0.3-0.9-1-1-1.7c-0.4-3.9-0.8-7.9-1.1-11.8c-0.1-1-0.5-1.3-1.5-1.3c-5.2,0-10.3,0-15.5,0c-1.1,0-1.5,0.3-1.4,1.5
				c0.8,8.6,1.5,17.3,2.2,25.9c0.1,1,0.4,1.6,1.6,1.9c12.1,3.3,24.2,6.6,36.3,10c0,5.5,0,11,0,16.5c0,2.4,0.2,2.5,2.5,1.8
				c7.3-2.1,14.5-4.1,21.8-6.1c7.6-2.1,15.2-4.3,22.8-6.3c0.7-0.2,1.2-0.3,1.3-1.2c0.5-5.5,1.1-11,1.6-16.5c0.3-3.7,0.5-7.5,0.9-11.2
				c0.6-5.7,1.1-11.4,1.6-17.1c0.2-3.3,0.6-6.7,0.9-10c0.5-5.6,1-11.2,1.6-16.7c0.3-3.5,0.6-6.9,0.9-10.4c0.5-5.4,1-10.9,1.5-16.3
				c0.3-3.6,0.6-7.2,0.9-10.8c0.5-5.2,1-10.5,1.5-15.7c0.1-1.4-0.3-2-1.9-2c-18.7,0.1-37.4,0-56,0c-1.4,0-1.9,0.4-1.8,1.8
				c0.1,5.4,0,10.9,0,16.3c-0.8,0-1.6,0.1-2.4,0.1c-13.4,0-26.7,0-40.1,0c-3.4,0-3.4,0-3.1,3.3c0.1,0.8,0.1,1.6,0.1,2.4
				c1.4,16,2.9,32.1,4.3,48.1c0.1,1.4,0.6,1.8,1.9,1.8c10.1-0.1,20.3,0,30.4,0c3,0,5.9,0.1,8.9,0.1C83.8,97.9,83.8,107.6,83.8,117.2z
				"/>
			<path fill="#F04219" d="M83.8,32.6c0-5.4,0-10.9,0-16.3c0-1.4,0.5-1.8,1.8-1.8c18.7,0,37.4,0,56,0c1.6,0,2,0.6,1.9,2
				c-0.5,5.2-1,10.5-1.5,15.7c-0.3,3.6-0.6,7.2-0.9,10.8c-0.5,5.4-1,10.9-1.5,16.3c-0.3,3.5-0.6,6.9-0.9,10.4
				c-0.5,5.6-1,11.2-1.6,16.7c-0.3,3.3-0.6,6.6-0.9,10c-0.4,5.7-0.9,11.4-1.6,17.1c-0.4,3.7-0.5,7.5-0.9,11.2
				c-0.5,5.5-1.1,11-1.6,16.5c-0.1,0.9-0.5,1-1.3,1.2c-7.6,2.1-15.2,4.2-22.8,6.3c-7.3,2-14.6,4-21.8,6.1c-2.4,0.7-2.5,0.6-2.5-1.8
				c0-5.5,0-11,0-16.5c0.1-0.1,0.1-0.1,0-0.2c0.5-0.1,1.1-0.1,1.6-0.3c10.7-2.9,21.3-5.9,31.9-8.8c4.1-1.2,4.1-1.2,4.4-5.5
				c0.8-10,1.8-20,2.7-30.1c0.6-6.8,1.2-13.6,1.8-20.4c0.1-0.9,0.1-1.5-1.1-1.5c-13.8,0.1-27.5,0.1-41.3,0.1l0-0.1
				c0-6.1,0-12.3,0-18.4c0-0.1,0-0.1,0-0.2c14.4,0,28.7,0.1,43.1,0.1c1,0,1.2-0.4,1.3-1.3c0.4-5.1,0.8-10.2,1.3-15.2
				c0.2-1.6-0.4-1.9-1.8-1.9c-11.9,0-23.8,0-35.7,0c-2.7,0-5.5,0.1-8.2,0.1C83.8,32.7,83.8,32.6,83.8,32.6z"/>
			<path fill="#E6E2DD" d="M83.8,88.3c-3,0-5.9-0.1-8.9-0.1c-10.1,0-20.3,0-30.4,0c-1.4,0-1.8-0.3-1.9-1.8c-1.4-16-2.9-32.1-4.3-48.1
				c-0.1-0.8-0.1-1.6-0.1-2.4c-0.2-3.3-0.2-3.3,3.1-3.3c13.4,0,26.7,0,40.1,0c0.8,0,1.6-0.1,2.4-0.1c0,0.1,0,0.1,0,0.2
				c0,6.1,0,12.1,0,18.2c0,0.1,0,0.1,0,0.2c-8.2,0-16.4,0-24.6-0.1c-1.2,0-1.3,0.5-1.2,1.4c0.5,5.3,1,10.7,1.5,16
				c0.1,1,0.4,1.2,1.4,1.2c7.7-0.1,15.3-0.1,23-0.1l0,0.1c0,6.1,0,12.2,0,18.3C83.8,88.1,83.8,88.2,83.8,88.3z"/>
			<path fill="#E6E2DD" d="M83.8,136.5c-12.1-3.3-24.2-6.7-36.3-10c-1.1-0.3-1.5-0.9-1.6-1.9c-0.7-8.6-1.5-17.3-2.2-25.9
				c-0.1-1.2,0.3-1.5,1.4-1.5c5.2,0,10.3,0,15.5,0c1,0,1.4,0.3,1.5,1.3c0.3,3.9,0.7,7.9,1.1,11.8c0.1,0.7-0.1,1.5,1,1.7
				c6.6,1.7,13,3.7,19.6,5.1l0,0.2c0,6.3,0,12.6,0,18.9C83.9,136.3,83.9,136.4,83.8,136.5z"/>
			<path fill="#F04219" d="M83.8,117.2c0-9.6,0-19.3,0-28.9c0-0.1,0-0.1,0-0.2c6.9,0,13.8,0.1,20.7,0.1c1.3,0,1.7,0.2,1.6,1.7
				c-0.7,6.7-1.3,13.4-1.7,20c-0.1,1.6-0.8,2.1-2.2,2.5c-6.2,1.6-12.3,3.3-18.4,5L83.8,117.2z"/>
			<path fill="#FEFEFE" d="M83.8,117.3c6.1-1.7,12.3-3.4,18.4-5c1.4-0.4,2-0.9,2.2-2.5c0.5-6.7,1.1-13.4,1.7-20
				c0.1-1.5-0.3-1.7-1.6-1.7c-6.9,0-13.8,0-20.7-0.1c0-6.1,0-12.2,0-18.3c13.8,0,27.5,0,41.3-0.1c1.3,0,1.2,0.6,1.1,1.5
				c-0.6,6.8-1.2,13.6-1.8,20.4c-0.9,10-1.8,20-2.7,30.1c-0.4,4.3-0.3,4.3-4.4,5.5c-10.6,3-21.3,5.9-31.9,8.8c-0.5,0.1-1,0.2-1.6,0.3
				C83.8,130,83.8,123.7,83.8,117.3z"/>
			<path fill="#FEFEFE" d="M83.8,51c0-6.1,0-12.1,0-18.2c2.7,0,5.5-0.1,8.2-0.1c11.9,0,23.8,0,35.7,0c1.5,0,2,0.2,1.8,1.9
				c-0.5,5.1-0.9,10.2-1.3,15.2c-0.1,0.9-0.3,1.3-1.3,1.3C112.5,51,98.1,51,83.8,51z"/>
			<path fill="#DF2B13" d="M83.8,69.6c-7.7,0-15.3,0-23,0.1c-0.9,0-1.3-0.2-1.4-1.2c-0.4-5.3-1-10.7-1.5-16c-0.1-1,0.1-1.5,1.2-1.4
				c8.2,0.1,16.4,0.1,24.6,0.1C83.8,57.3,83.8,63.5,83.8,69.6z"/>
		</g>
	</g>
</svg>