<svg version="1.1" 
  xmlns="http://www.w3.org/2000/svg" 
  xmlns:xlink="http://www.w3.org/1999/xlink" 
  xmlns:a="http://ns.adobe.com/AdobeSVGViewerExtensions/3.0/" x="0px" y="0px" viewBox="-17 -17 192 192" enable-background="new 0 0 160 160" xml:space="preserve">
  <defs>
    <filter id="noise">
      <feTurbulence type="fractalNoise" baseFrequency="0.15" result="noisy" />
      <feDisplacementMap in="SourceGraphic" in2="noisy" scale="6" xChannelSelector="G" yChannelSelector="R"/>
      <feColorMatrix type="matrix" values="0.8 0 0 0 0
      0 0.8 0 0 0
      0 0 0.8 0 0
      0 0 0 1 0" result="lightened" />
    </filter>
  </defs>
  <g filter="url(#noise)">
    <path fill="#FF26BE" d="M133.1,157.7H28.6C12.8,157.7,0,144.9,0,129.1V28.6C0,12.8,12.8,0,28.6,0h104.5c15.8,0,28.6,12.8,28.6,28.6
      v100.4C161.8,144.9,149,157.7,133.1,157.7z"/>
    <path fill="#2E001F" d="M130.6,151H31.2c-13.5,0-24.5-11-24.5-24.5V31.2c0-13.5,11-24.5,24.5-24.5h99.3c13.5,0,24.5,11,24.5,24.5
      v95.2C155,140,144,151,130.6,151z"/>
    <path fill="#FFD9F2" d="M64,73.8l18.9,36.3c0.3,0.5,0.1,1.1-0.4,1.1H70.7c-0.7,0-1.1-0.2-1.4-0.9c-4.3-8.9-8.7-17.8-13.2-27.4h-0.1
      c-4,9-8.5,18.5-12.8,27.4c-0.3,0.5-0.7,0.7-1.2,0.7H30.8c-0.7,0-0.7-0.5-0.4-0.9L48.9,75L31,39.4c-0.4-0.5,0-0.9,0.4-0.9H43
      c0.7,0,0.9,0.1,1.2,0.7c4.2,8.9,8.6,18.1,12.6,27H57c3.9-8.9,8.2-18.1,12.4-27c0.3-0.5,0.5-0.9,1.2-0.9h10.9c0.5,0,0.7,0.4,0.4,0.9
      L64,73.8z M86.1,84.8c0-15.7,10.4-28,27-28c1.4,0,2.2,0,3.5,0.1V39.1c0-0.4,0.3-0.7,0.7-0.7H128c0.5,0,0.7,0.2,0.7,0.5v61.9
      c0,1.8,0,4.1,0.3,6.6c0,0.4-0.1,0.5-0.5,0.7c-5.7,2.7-11.6,3.9-17.3,3.9C96.6,112.2,86.1,103.1,86.1,84.8z M116.7,67.5
      c-0.9-0.4-2.3-0.7-3.9-0.7c-8.5,0-14.4,6.5-14.4,17.4c0,12.4,6.1,17.4,13.7,17.4c1.6,0,3.4-0.2,4.7-0.7V67.5z"/>
  </g>
</svg>
