<svg version="1.1" 
  xmlns="http://www.w3.org/2000/svg" 
  xmlns:xlink="http://www.w3.org/1999/xlink" 
  xmlns:a="http://ns.adobe.com/AdobeSVGViewerExtensions/3.0/" x="0px" y="0px" viewBox="-17 -17 192 192" enable-background="new 0 0 160 160" xml:space="preserve">
  <defs>
    <filter id="noise">
      <feTurbulence type="fractalNoise" baseFrequency="0.15" result="noisy" />
      <feDisplacementMap in="SourceGraphic" in2="noisy" scale="6" xChannelSelector="G" yChannelSelector="R"/>
      <feColorMatrix type="matrix" values="1.5 0 0 0 0
      0 1.5 0 0 0
      0 0 1.5 0 0
      0 0 0 1 0" result="lightened" />
       <rect id="SVGID_1_" x="0.1" y="0.3" width="157.7" height="157.7"/>
    </filter>
   
  </defs>
  	<g filter="url(#noise)">
    
    <clipPath id="SVGID_2_">
		  <use xlink:href="#SVGID_1_"  overflow="visible"/>
	  </clipPath>
    <g clip-path="url(#SVGID_2_)">
      <path fill="#A677B7" d="M79.3,0c25.8,0,51.5,0,77.3,0c2.3,0,2.1-0.3,2.1,2c0,51.6,0,103.1,0,154.7c0,2.3,0.3,2-2.1,2
        c-51.5,0-103,0-154.5,0c-2.3,0-2.1,0.3-2.1-2C0,105.1,0,53.6,0,2c0-2.3-0.3-2,2.1-2C27.8,0,53.6,0,79.3,0z M79.4,7.9
        c-23.3,0-46.5,0-69.8,0c-1.4,0-1.7,0.4-1.7,1.8c0,46.4,0,92.9,0,139.3c0,1.4,0.3,1.8,1.8,1.8c46.4,0,92.9,0,139.3,0
        c1.5,0,1.8-0.4,1.8-1.8c0-46.4,0-92.9,0-139.3c0-1.4-0.3-1.7-1.7-1.7C125.9,8,102.6,7.9,79.4,7.9z"/>
      <path fill="#0A0014" d="M79.4,7.9c23.2,0,46.4,0,69.7,0c1.4,0,1.7,0.4,1.7,1.7c0,46.4,0,92.9,0,139.3c0,1.4-0.3,1.8-1.8,1.8
        c-46.4,0-92.9,0-139.3,0c-1.5,0-1.8-0.4-1.8-1.8c0-46.4,0-92.9,0-139.3c0-1.3,0.3-1.8,1.7-1.8C32.9,8,56.1,7.9,79.4,7.9z
        M86.5,111.7c-0.1-0.4-0.1-0.7-0.2-0.9c-6.8-21-13.5-42-20.2-63.1c-0.3-0.9-0.7-1.1-1.6-1.1c-4.1,0-8.1,0.1-12.2,0
        c-1.1,0-1.6,0.3-2,1.4c-3.8,12.2-7.7,24.4-11.6,36.6c-2.7,8.5-5.4,17.1-8.1,25.6c-0.4,1.2-0.2,1.5,1.1,1.4c3.1-0.1,6.2-0.1,9.4,0
        c1,0,1.4-0.3,1.6-1.2c1.5-5.2,3.2-10.4,4.7-15.6c0.3-1.1,0.8-1.4,1.9-1.4c5.8,0.1,11.6,0.1,17.5,0c1.1,0,1.5,0.3,1.9,1.4
        c1.6,5.2,3.3,10.4,5,15.7c0.2,0.7,0.5,1.2,1.4,1.2C78.7,111.7,82.5,111.7,86.5,111.7z M119.9,100.8c-4.3,1.6-8.5,2.2-12.8,2
        c-6.4-0.2-10.6-4-11.6-10.2c-0.3-1.6,0.2-1.7,1.6-1.7c8.4,0,16.7,0,25.1,0c1.1,0,1.5-0.3,1.6-1.3c0.3-2.9,0.2-5.7-0.2-8.5
        c-0.7-4.3-2-8.3-4.7-11.7c-6.6-8.3-21-7.8-27.9,1.1c-4.9,6.3-6.2,13.5-5.6,21.2c0.4,4.7,1.9,9,4.8,12.8c6.4,8.1,19.9,9,27.7,4.7
        c0.5-0.3,0.7-0.7,0.8-1.2C119,105.7,119.4,103.4,119.9,100.8z"/>
      <path fill="#A677B7" d="M86.5,111.7c-4,0-7.8,0-11.6,0c-0.9,0-1.1-0.4-1.4-1.2c-1.6-5.2-3.4-10.4-5-15.7c-0.3-1-0.8-1.4-1.9-1.4
        c-5.8,0.1-11.6,0.1-17.5,0c-1.1,0-1.6,0.3-1.9,1.4c-1.5,5.2-3.2,10.4-4.7,15.6c-0.3,0.9-0.7,1.2-1.6,1.2c-3.1-0.1-6.2-0.1-9.4,0
        c-1.3,0-1.5-0.2-1.1-1.4c2.7-8.5,5.4-17.1,8.1-25.6c3.9-12.2,7.7-24.4,11.6-36.6c0.4-1.1,0.8-1.5,2-1.4c4.1,0.1,8.1,0,12.2,0
        c0.9,0,1.3,0.2,1.6,1.1c6.7,21,13.5,42,20.2,63.1C86.4,111,86.4,111.3,86.5,111.7z M58,56.9c-0.2,0.4-0.4,0.5-0.4,0.7
        c-2,8.8-4.8,17.5-7.5,26.1c-0.4,1.1,0.1,1.1,0.9,1.1c4.5,0,9.1-0.1,13.6,0c1.4,0,1.5-0.3,1.1-1.6C63,74.5,60,66,58,56.9z"/>
      <path fill="#A677B7" d="M119.9,100.8c-0.5,2.6-0.9,4.9-1.3,7.1c-0.1,0.5-0.3,0.9-0.8,1.2c-7.8,4.3-21.3,3.5-27.7-4.7
        c-3-3.8-4.5-8.1-4.8-12.8c-0.6-7.7,0.7-14.9,5.6-21.2c6.9-8.9,21.3-9.4,27.9-1.1c2.7,3.5,4.1,7.5,4.7,11.7
        c0.4,2.8,0.5,5.7,0.2,8.5c-0.1,1.1-0.5,1.4-1.6,1.3c-8.4,0-16.7,0-25.1,0c-1.3,0-1.8,0.1-1.6,1.7c1,6.2,5.3,10,11.6,10.2
        C111.4,103,115.6,102.4,119.9,100.8z M104.5,82.8c2.6,0,5.2-0.1,7.8,0c1.3,0,1.5-0.4,1.4-1.5c-0.1-1.8-0.5-3.4-1.3-5
        c-2.4-5.1-8.6-6.4-12.9-2.8c-2.5,2.1-3.6,5-4.1,8.1c-0.2,1,0.1,1.2,1,1.2C99.1,82.8,101.8,82.8,104.5,82.8z"/>
      <path fill="#0A0014" d="M58,56.9c2,9.1,5,17.6,7.8,26.2c0.4,1.3,0.2,1.6-1.1,1.6c-4.5-0.1-9.1,0-13.6,0c-0.8,0-1.3,0-0.9-1.1
        c2.8-8.6,5.5-17.2,7.5-26.1C57.6,57.4,57.7,57.3,58,56.9z"/>
      <path fill="#0A0014" d="M104.5,82.8c-2.7,0-5.4,0-8.1,0c-0.9,0-1.2-0.2-1-1.2c0.6-3.1,1.6-6,4.1-8.1c4.3-3.7,10.5-2.3,12.9,2.8
        c0.8,1.6,1.1,3.3,1.3,5c0.1,1.1-0.2,1.6-1.4,1.5C109.7,82.7,107.1,82.8,104.5,82.8z"/>
      </g>

    </g>
    </svg>
