<svg version="1.1" 
	xmlns="http://www.w3.org/2000/svg" 
	xmlns:xlink="http://www.w3.org/1999/xlink" 
	xmlns:a="http://ns.adobe.com/AdobeSVGViewerExtensions/3.0/" x="0px" y="0px" viewBox="-17 -17 192 192" enable-background="new 0 0 400 400" xml:space="preserve">
	<defs>
		<filter id="noise">
			<feTurbulence type="fractalNoise" baseFrequency="0.15" result="noisy" />
			<feDisplacementMap in="SourceGraphic" in2="noisy" scale="6" xChannelSelector="G" yChannelSelector="R"/>
		</filter>
	</defs>
	<g filter="url(#noise)" transform="scale(0.9)" >
		<g>
			<path d="M0.1,89.9c0-14.4,0-28.9,0-43.3c0-1.4,0.4-2.2,1.6-2.9c25-14.4,50-28.7,74.9-43.2c1.3-0.8,2.2-0.7,3.5,0
				c25,14.5,50.1,28.9,75.1,43.3c1,0.6,1.6,1.2,1.5,2.4c-0.1,1,0,2.1,0,3.1c0,27.8,0,55.5,0,83.3c0,1.8-0.6,2.8-2.1,3.6
				c-24.7,14.2-49.3,28.4-73.9,42.6c-1.7,1-3,1-4.7,0c-23.8-13.8-47.6-27.6-71.5-41.1c-3.5-2-4.7-4-4.6-8
				C0.3,116.4,0.1,103.2,0.1,89.9C0.1,89.9,0.1,89.9,0.1,89.9z M54.4,47.8c-0.2-0.1-0.4-0.2-0.6-0.4c-2.2,3.3-4.9,6.4-6.5,10
				c-3.1,6.7-2.7,13.7-0.6,20.6c1.5,4.8,3.8,9.1,7.2,12.8c4.1,4.5,8.7,8.4,14.5,10.8c3.6,1.5,7.2,2.5,11.1,2.6c2,0.1,4,0,6,0
				c4.3,0.1,8.2-1.2,12-2.9c4.8-2.1,8.7-5.4,11.7-9.6c1.3-1.8,2.4-3.8,3.6-5.8c-0.2-0.2-0.3-0.3-0.5-0.5c-0.4,0.3-0.9,0.6-1.3,1
				c-0.5,0.6-0.9,1.2-1.5,1.8c-4.4,4.1-9.8,6.4-15.7,7c-6,0.6-12,0.2-17.7-2.3c-12-5.1-20.2-13.5-23.5-26.3c-1-3.9-1.2-8-0.2-11.9
				C53.1,52.4,53.8,50.1,54.4,47.8z M113.9,68.8c-9.8,10-20.9,10.4-31.9,3.1c-10.9-7.3-15.1-17.5-10-30.6c-1.7,2.2-3.5,4.2-4.7,6.6
				c-2.9,5.5-3,11.2-1,17.1c2,5.7,5.7,10.1,10.5,13.6c7.2,5.1,15.1,5.6,23.4,3.6c3.3-0.8,6-2.6,8.4-4.7
				C111.2,75,112.9,72.1,113.9,68.8z M58.6,123.9c0.6-1.7,1.2-3.2,1.6-4.8c0.5-1.6,1-3.2,1.3-4.8c0.7-4.4-1.4-8.6-5.5-10.2
				c-4.2-1.6-8.4-1.4-12.2,1c-4.9,3-8.3,11.5-7.2,17.5c0.8,4.1,3.4,6.6,7.7,6.8c4.9,0.2,9.8,0.1,14.7,0c0.4,0,1.1-0.3,1.2-0.6
				c0.5-1.4,0.8-2.9,1.2-4.6C60.3,124.1,59.5,124,58.6,123.9z M89.6,121.2c3,0,5.9,0,8.8,0c4.7,0,4.7,0,5.3-4.7c0.7-5-1.3-7.5-6.3-8
				c-0.3,0-0.5-0.1-0.8-0.1c-4.5,0-8.9,0.8-10.9,5.4c-1.3,2.9-1.9,6.1-2.3,9.3c-0.4,3.7,1.5,6,5.2,6.4c3.7,0.4,7.4,0.3,11.2,0.3
				c0.3,0,0.9-0.4,0.9-0.7c0.4-1.5,0.6-2.9,1-4.7c-1.1,0-1.7,0-2.4,0c-2.3,0-4.6,0.1-6.9,0C90.1,124.2,89.5,123.5,89.6,121.2z
				M71.5,108.8c-1.8,0-3.4-0.1-4.9,0.1c-0.4,0-0.9,0.7-1,1.1c-0.9,4.2-1.8,8.3-2.4,12.5c-0.6,4.5,1.7,6.9,6.3,7c2.8,0,5.5-0.1,8.3,0
				c1.4,0.1,1.9-0.5,2.1-1.8c0.9-4.5,1.9-9.1,2.9-13.6c0.4-1.7,0.7-3.4,1.1-5.4c-1.5,0-2.7,0.1-3.9,0c-1.4-0.1-1.9,0.5-2.1,1.8
				c-0.8,4.1-1.8,8.2-2.6,12.3c-0.2,1-0.5,1.5-1.7,1.5c-4.4,0.1-5-0.6-4.1-4.9c0.1-0.3,0.1-0.6,0.2-0.9
				C70.3,115.4,70.9,112.2,71.5,108.8z M126.6,117.9c-0.7-1-1.1-2.5-1.8-2.6c-1.8-0.3-3.7-0.1-5.8-0.1c0.7,2.6,1.6,4.8,1.9,7.1
				c0.3,2.3,0.1,4.6,0.1,7.2c1.2,0,2.6-0.1,4.1,0c1.3,0.1,2-0.4,2.1-1.6c0.3-2.4,1.5-4.3,3-6.2c3.5-4.6,7-9.2,10.5-13.9
				c0.4-0.6,0.8-1.2,1.4-2.2c-2,0-3.6,0.1-5.1,0c-1.5-0.1-2.5,0.5-3.3,1.8C131.5,111,129,114.4,126.6,117.9z M87,37.9
				c-4.3,2.7-6.6,9.7-3.9,16c2.9,6.7,9.4,11.5,18.6,10.4c4.6-0.5,9.4-3.8,10.1-8.3c-5.8,6.1-13.1,4.5-18.5,1.5
				c-2.9-1.7-5.1-4.1-6.5-7.1C85,46.5,84.2,42.4,87,37.9z M125.1,114.2c-0.3-4.5-1.3-5.4-5.1-5.4c-3.4,0-6.8,0.1-10.2,0
				c-1.3,0-1.8,0.5-2,1.7c-0.8,4.2-1.8,8.3-2.6,12.5c-0.4,2.1-0.9,4.2-1.3,6.6c1.4,0,2.4-0.1,3.4,0c1.8,0.2,2.6-0.4,2.9-2.3
				c0.6-3.8,1.6-7.6,2.3-11.4c0.2-1.3,0.8-1.7,2.1-1.7C117.9,114.2,121.4,114.2,125.1,114.2z M34.7,115c-1.8,0-3.3-0.1-4.6,0.1
				c-0.6,0.1-1.5,0.7-1.7,1.3c-0.7,2.3-1.1,4.6-1.6,6.9c-0.4,1.9-0.7,3.8-1.2,5.7c-0.5,1.8-1.2,3.7-3.7,3.4c-0.3,0-0.9,0.3-1,0.6
				c-0.5,1.4-0.8,2.9-1.2,4.7c1.5,0,2.5,0,3.6,0c4.7,0,6.4-1.1,7.7-5.7c1.1-4,1.9-8.1,2.8-12.2C34.1,118.4,34.4,116.9,34.7,115z
				M29.1,113.6c5.2,1.3,6.9,0.1,6.8-4.8c-1.6,0-3.3,0-4.9,0c-0.3,0-0.8,0.4-0.9,0.7C29.6,110.9,29.4,112.2,29.1,113.6z"/>
			<path fill="#FFFFFF" d="M54.4,47.8c-0.6,2.3-1.3,4.6-1.9,6.9c-1,4-0.8,8,0.2,11.9C55.9,79.5,64.2,87.9,76.2,93
				c5.7,2.5,11.7,2.9,17.7,2.3c5.8-0.6,11.2-2.9,15.7-7c0.6-0.5,0.9-1.2,1.5-1.8c0.4-0.4,0.8-0.7,1.3-1c0.2,0.2,0.3,0.3,0.5,0.5
				c-1.2,1.9-2.3,3.9-3.6,5.8c-3,4.3-6.9,7.6-11.7,9.6c-3.8,1.7-7.7,3-12,2.9c-2,0-4,0-6,0c-3.9-0.1-7.5-1.2-11.1-2.6
				c-5.8-2.4-10.4-6.3-14.5-10.8c-3.4-3.7-5.7-8-7.2-12.8c-2.1-6.9-2.5-13.9,0.6-20.6c1.6-3.6,4.3-6.7,6.5-10
				C54,47.6,54.2,47.7,54.4,47.8z"/>
			<path fill="#FFFFFF" d="M113.9,68.8c-1,3.4-2.7,6.3-5.3,8.5c-2.5,2.1-5.1,3.9-8.4,4.7c-8.3,2.1-16.2,1.5-23.4-3.6
				c-4.9-3.4-8.6-7.8-10.5-13.6c-2-5.8-1.9-11.6,1-17.1c1.2-2.3,2.9-4.4,4.7-6.6c-5.1,13-0.8,23.3,10,30.6
				C93,79.2,104.1,78.8,113.9,68.8z"/>
			<path fill="#FFFFFF" d="M58.6,123.9c0.9,0.1,1.7,0.2,2.8,0.4c-0.4,1.6-0.7,3.1-1.2,4.6c-0.1,0.3-0.8,0.6-1.2,0.6
				c-4.9,0-9.8,0.2-14.7,0c-4.2-0.2-6.9-2.7-7.7-6.8c-1.1-6,2.2-14.5,7.2-17.5c3.9-2.4,8.1-2.6,12.2-1c4.1,1.6,6.3,5.7,5.5,10.2
				c-0.3,1.6-0.8,3.2-1.3,4.8C59.8,120.7,59.2,122.3,58.6,123.9z M48.9,123.9C48.9,123.9,48.9,123.9,48.9,123.9c0.9,0,1.8,0.1,2.7,0
				c0.5-0.1,1.1-0.5,1.2-0.9c0.9-3,1.8-5.9,2.4-8.9c0.5-2.9-1.2-5.1-4-5.1c-1.7,0-3.7,0.6-4.9,1.7c-3.1,2.8-3.6,6.7-3,10.7
				c0.2,1.6,1.6,2.5,3.2,2.6C47.2,124,48.1,123.9,48.9,123.9z"/>
			<path fill="#FFFFFF" d="M89.6,121.2c-0.1,2.3,0.6,3,2.8,3c2.3,0.1,4.6,0,6.9,0c0.7,0,1.4,0,2.4,0c-0.3,1.8-0.6,3.2-1,4.7
				c-0.1,0.3-0.6,0.7-0.9,0.7c-3.7,0-7.5,0.1-11.2-0.3c-3.7-0.4-5.6-2.6-5.2-6.4c0.3-3.1,1-6.4,2.3-9.3c2-4.6,6.3-5.4,10.9-5.4
				c0.3,0,0.5,0.1,0.8,0.1c5.1,0.5,7,3,6.3,8c-0.6,4.7-0.6,4.7-5.3,4.7C95.4,121.2,92.6,121.2,89.6,121.2z M97.4,116.5
				c0.5-1.8-0.4-2.6-1.9-2.9c-2.4-0.5-4.4,0.7-4.8,2.9C93,116.5,95.2,116.5,97.4,116.5z"/>
			<path fill="#FFFFFF" d="M71.5,108.8c-0.7,3.4-1.3,6.6-1.9,9.7c-0.1,0.3-0.1,0.6-0.2,0.9c-0.9,4.3-0.3,5,4.1,4.9
				c1.2,0,1.5-0.5,1.7-1.5c0.8-4.1,1.8-8.2,2.6-12.3c0.3-1.3,0.7-1.9,2.1-1.8c1.2,0.1,2.4,0,3.9,0c-0.4,2-0.7,3.7-1.1,5.4
				c-1,4.5-2,9-2.9,13.6c-0.3,1.3-0.7,1.8-2.1,1.8c-2.8-0.1-5.5,0-8.3,0c-4.6,0-6.9-2.5-6.3-7c0.6-4.2,1.5-8.3,2.4-12.5
				c0.1-0.4,0.6-1.1,1-1.1C68.2,108.7,69.7,108.8,71.5,108.8z"/>
			<path fill="#FFFFFF" d="M126.6,117.9c2.4-3.5,4.9-6.9,7.2-10.5c0.8-1.3,1.8-1.9,3.3-1.8c1.5,0.1,3.1,0,5.1,0c-0.6,1-1,1.6-1.4,2.2
				c-3.5,4.6-6.9,9.3-10.5,13.9c-1.4,1.9-2.7,3.8-3,6.2c-0.1,1.3-0.8,1.7-2.1,1.6c-1.5-0.1-2.9,0-4.1,0c0-2.6,0.3-4.9-0.1-7.2
				c-0.3-2.3-1.2-4.6-1.9-7.1c2.1,0,4-0.2,5.8,0.1C125.5,115.4,125.9,116.9,126.6,117.9z"/>
			<path fill="#FFFFFF" d="M87,37.9c-2.8,4.5-2,8.6-0.2,12.5c1.4,3,3.6,5.4,6.5,7.1c5.4,3.1,12.7,4.7,18.5-1.5
				c-0.7,4.5-5.5,7.7-10.1,8.3c-9.2,1.1-15.8-3.7-18.6-10.4C80.4,47.6,82.7,40.6,87,37.9z"/>
			<path fill="#FFFFFF" d="M125.1,114.2c-3.7,0-7.2,0-10.7,0c-1.3,0-1.8,0.4-2.1,1.7c-0.7,3.8-1.7,7.5-2.3,11.4
				c-0.3,1.9-1.1,2.5-2.9,2.3c-1-0.1-2,0-3.4,0c0.5-2.4,0.9-4.5,1.3-6.6c0.9-4.2,1.8-8.3,2.6-12.5c0.2-1.2,0.7-1.7,2-1.7
				c3.4,0.1,6.8,0,10.2,0C123.8,108.8,124.8,109.7,125.1,114.2z"/>
			<path fill="#FFFFFF" d="M34.7,115c-0.4,1.9-0.7,3.4-1,4.9c-0.9,4.1-1.7,8.2-2.8,12.2c-1.3,4.5-3,5.7-7.7,5.7c-1.1,0-2.2,0-3.6,0
				c0.5-1.8,0.8-3.2,1.2-4.7c0.1-0.3,0.7-0.7,1-0.6c2.5,0.2,3.2-1.6,3.7-3.4c0.5-1.9,0.8-3.8,1.2-5.7c0.5-2.3,0.9-4.7,1.6-6.9
				c0.2-0.6,1-1.2,1.7-1.3C31.5,114.9,32.9,115,34.7,115z"/>
			<path fill="#FFFFFF" d="M29.1,113.6c0.3-1.4,0.6-2.7,0.9-4c0.1-0.3,0.6-0.7,0.9-0.7c1.6-0.1,3.3,0,4.9,0
				C36,113.7,34.2,114.9,29.1,113.6z"/>
			<path d="M48.9,123.9c-0.8,0-1.7,0.1-2.5,0c-1.6-0.2-3-1-3.2-2.6c-0.5-4,0-7.8,3-10.7c1.2-1.1,3.2-1.6,4.9-1.7c2.9,0,4.6,2.2,4,5.1
				c-0.6,3-1.5,6-2.4,8.9c-0.1,0.4-0.8,0.8-1.2,0.9C50.7,124,49.8,123.9,48.9,123.9C48.9,123.9,48.9,123.9,48.9,123.9z"/>
			<path d="M97.4,116.5c-2.2,0-4.5,0-6.7,0c0.4-2.2,2.4-3.3,4.8-2.9C97,113.9,98,114.7,97.4,116.5z"/>
		</g>
	</g>
</svg>