<svg version="1.1" 
	xmlns="http://www.w3.org/2000/svg" 
	xmlns:xlink="http://www.w3.org/1999/xlink" 
	xmlns:a="http://ns.adobe.com/AdobeSVGViewerExtensions/3.0/" x="0px" y="0px" viewBox="-17 -17 192 192" enable-background="new 0 0 400 400" xml:space="preserve">
	<defs>
		<filter id="noise">
			<feTurbulence type="fractalNoise" baseFrequency="0.15" result="noisy" />
			<feDisplacementMap in="SourceGraphic" in2="noisy" scale="6" xChannelSelector="G" yChannelSelector="R"/>
		</filter>
		<rect id="SVGID_1_" width="173" height="173"/>
	</defs>
	<g filter="url(#noise)" transform="translate(-10,0)">
		<clipPath id="SVGID_2_">
			<use xlink:href="#SVGID_1_"  overflow="visible"/>
		</clipPath>
		<g clip-path="url(#SVGID_2_)">
			<path fill="#D9871E" d="M86.7,1.7c23.6,0,47.2,0,70.8-0.1c2.3,0,2.6,0.6,2.4,2.8c-1.3,13.6-2.5,27.3-3.7,41
				c-1.4,15.8-2.8,31.6-4.3,47.4c-1.1,11.8-2.1,23.6-3.1,35.3c-0.7,7.4-1.4,14.7-1.9,22.1c-0.1,1.7-1.2,1.7-2.3,2
				c-13,3.6-26.1,7.2-39.1,10.9c-5.6,1.6-11.2,3.1-16.8,4.7c-1.5,0.4-2.8,0.4-4.3,0c-18.6-5.2-37.1-10.3-55.7-15.4
				c-1.6-0.4-2.1-1.1-2.3-2.8C23.9,121.7,21.4,94,19,66.2c-1.9-20.9-3.7-41.9-5.7-62.8c-0.2-2.2,1-1.8,2.2-1.8
				C39.2,1.7,63,1.7,86.7,1.7z M86.6,117l0,0.2c-6.1-1.6-12.2-3.3-18.3-4.9c-1.6-0.4-2.5-0.9-2.6-2.8c-0.1-3.5-0.6-7-0.9-10.5
				c-0.1-1.4-0.5-2-2.1-2c-4.9,0.1-9.9,0.1-14.8,0c-1.8,0-2,0.7-1.8,2.2c0.8,8.1,1.7,16.1,2.2,24.2c0.2,2.2,0.9,2.8,2.9,3.3
				c11.8,3.2,23.5,6.5,35.3,9.8c0,5.3,0,10.7,0,16c0,2.9,0,2.9,2.9,2.1c14.7-4.1,29.3-8.2,44-12.2c1.3-0.4,1.9-1,2-2.4
				c0.7-9.2,1.4-18.4,2.4-27.6c1-9.2,1.5-18.4,2.5-27.6c1-9.2,1.5-18.4,2.5-27.6c1.1-10.1,1.6-20.4,2.6-30.5c0.3-2.8,0.1-5.6,0.6-8.3
				c0.9-4.2,0.3-4.9-4-4.9c-17.1,0-34.2,0-51.3,0c-4.2,0-4.2,0-4.2,4.3c0,1,0,2,0,3c-1,0-2,0.1-2.9,0.1c-9.8,0-19.6,0-29.3,0
				c-1.3,0-2.1,0.1-2.3,1.7c-1.9,21.2-3.8,42.3-5.8,63.5c-0.1,1.2,0.1,1.6,1.4,1.6c12.8-0.1,25.6-0.1,38.5-0.1
				c0.2,0.1,0.3,0.2,0.5,0.3C86.6,97.5,86.6,107.3,86.6,117z"/>
			<path fill="#E3A922" d="M86.6,20.7c0-1,0-2,0-3c0-4.3,0-4.3,4.2-4.3c17.1,0,34.2,0,51.3,0c4.3,0,4.9,0.8,4,4.9
				c-0.6,2.7-0.3,5.5-0.6,8.3c-1.1,10.1-1.6,20.4-2.6,30.5c-1,9.2-1.5,18.4-2.5,27.6c-1,9.2-1.5,18.4-2.5,27.6
				c-1,9.2-1.7,18.4-2.4,27.6c-0.1,1.3-0.7,2-2,2.4c-14.7,4.1-29.3,8.2-44,12.2c-2.8,0.8-2.9,0.7-2.9-2.1c0-5.3,0-10.7,0-16
				c0-0.1,0.1-0.2,0.1-0.3c0.6-0.1,1.3-0.2,1.9-0.4c11-3,21.9-6.1,32.9-9.1c1.7-0.5,2.8-1,2.8-3.1c0-2.8,0.5-5.5,0.8-8.3
				c1.3-14.4,2.5-28.8,3.9-43.1c0.2-2.1-0.1-2.8-2.5-2.8c-13.3,0.1-26.6,0-39.9,0c0-9.6,0-19.3,0-28.9l0-0.2c6.5,0.4,13.1,0.9,19.7,1
				c2.3,0,2.9,0.9,3,3c0.3,4.7,0.8,9.3,1.1,14c0.1,1.7,0.7,2.4,2.5,2.3c4.4-0.2,8.9,0,13.3-0.1c3.1,0,3,0,2.7-2.9
				c-0.5-5-0.9-10-1.4-14.9c-0.6-6.6-1.2-13.2-1.8-19.8c-0.1-1.2-0.4-1.7-1.7-1.7c-12.5,0.1-25,0.1-37.4,0.1L86.6,20.7z"/>
			<path fill="#E7E6E3" d="M86.1,87.5c-12.8,0-25.6,0.1-38.5,0.1c-1.2,0-1.5-0.5-1.4-1.6c2-21.2,3.9-42.3,5.8-63.5
				c0.1-1.7,1-1.7,2.3-1.7c9.8,0,19.6,0,29.3,0c1,0,2-0.1,2.9-0.1l0,0.2c0,6.4,0,12.7,0,19.1l0,0.2c-5.4-0.2-10.8,0.1-16.2,0.3
				c-1.2,0-1.5,0.5-1.6,1.6c-0.7,8.4-1.5,16.8-2.4,25.2c-0.2,1.7,0.5,2,2,2c5.9,0,11.8,0,17.7,0.1C86.1,75.4,86.1,81.5,86.1,87.5z"/>
			<path fill="#FEFEFE" d="M86.1,87.5c0-6.1,0-12.1,0-18.2c0.2-0.1,0.3-0.1,0.5-0.2c13.3,0,26.6,0.1,39.9,0c2.3,0,2.7,0.7,2.5,2.8
				c-1.4,14.4-2.6,28.8-3.9,43.1c-0.2,2.8-0.8,5.5-0.8,8.3c0,2.2-1.1,2.7-2.8,3.1c-11,3-22,6.1-32.9,9.1c-0.6,0.2-1.3,0.3-1.9,0.4
				c0-6.3,0-12.6-0.1-18.9l0-0.2c6.1-1.6,12.2-3.2,18.3-4.8c0.9-0.2,2-0.2,2.1-1.6c0.6-7.1,1.2-14.2,1.9-21.3c0.1-1-0.2-1.5-1.3-1.5
				c-7,0.1-14,0.1-20.9,0.2C86.4,87.7,86.3,87.6,86.1,87.5z"/>
			<path fill="#E7E6E3" d="M86.6,117.1c0,6.3,0,12.6,0.1,18.9c0,0.1,0,0.2-0.1,0.3c-11.8-3.3-23.5-6.6-35.3-9.8
				c-1.9-0.5-2.7-1.2-2.9-3.3c-0.6-8.1-1.4-16.2-2.2-24.2c-0.2-1.5,0-2.2,1.8-2.2c4.9,0.1,9.9,0.1,14.8,0c1.5,0,2,0.6,2.1,2
				c0.2,3.5,0.8,7,0.9,10.5c0.1,1.9,1,2.4,2.6,2.8C74.4,113.8,80.5,115.5,86.6,117.1z"/>
			<path fill="#E3AB26" d="M86.6,87.8c7-0.1,14-0.1,20.9-0.2c1.1,0,1.4,0.5,1.3,1.5c-0.7,7.1-1.3,14.2-1.9,21.3
				c-0.1,1.4-1.2,1.4-2.1,1.6c-6.1,1.6-12.2,3.2-18.3,4.8C86.6,107.3,86.6,97.5,86.6,87.8z"/>
			<path fill="#FEFEFE" d="M86.6,40.1c0-6.4,0-12.7,0-19.1c12.5,0,25-0.1,37.4-0.1c1.3,0,1.6,0.5,1.7,1.7c0.6,6.6,1.2,13.2,1.8,19.8
				c0.5,5,0.9,10,1.4,14.9c0.3,2.9,0.3,2.9-2.7,2.9c-4.4,0-8.9-0.1-13.3,0.1c-1.9,0.1-2.4-0.7-2.5-2.3c-0.3-4.7-0.8-9.3-1.1-14
				c-0.1-2.1-0.7-2.9-3-3C99.7,40.9,93.2,40.4,86.6,40.1z"/>
			<path fill="#D9871E" d="M86.6,69.2c-0.2,0.1-0.3,0.1-0.5,0.2c-5.9,0-11.8-0.1-17.7-0.1c-1.5,0-2.2-0.3-2-2
				c0.9-8.4,1.6-16.8,2.4-25.2c0.1-1.1,0.4-1.6,1.6-1.6c5.4-0.1,10.8-0.5,16.2-0.3C86.6,49.9,86.6,59.6,86.6,69.2z"/>
		</g>
	</g>
</svg>