<svg version="1.1" 
	xmlns="http://www.w3.org/2000/svg" 
	xmlns:xlink="http://www.w3.org/1999/xlink" 
	xmlns:a="http://ns.adobe.com/AdobeSVGViewerExtensions/3.0/" x="0px" y="0px" viewBox="-17 -17 192 192" enable-background="new 0 0 400 400" xml:space="preserve">
	<defs>
		<filter id="noise">
			<feTurbulence type="fractalNoise" baseFrequency="0.15" result="noisy" />
			<feDisplacementMap in="SourceGraphic" in2="noisy" scale="6" xChannelSelector="G" yChannelSelector="R"/>
		</filter>
		<rect id="wp1" width="192" height="192"/>
	</defs>
	<clipPath id="wp2">
		<use xlink:href="#wp1" overflow="visible"/>
	</clipPath>
	<g filter="url(#noise)" clip-path="url(#wp2)" transform="scale(0.9)" >
		<path d="M91,4.2c47.9,0,86.7,38.8,86.7,86.7c0,47.9-38.8,86.7-86.7,86.7c-47.9,0-86.6-38.7-86.7-86.7C4.3,43,43.1,4.2,91,4.2z
				M90.9,172.3c45,0.1,81.5-36.4,81.6-81.5c0-45-36.2-81.3-81.4-81.5C46.2,9.1,9.6,45.6,9.5,90.7C9.3,135.7,45.8,172.3,90.9,172.3z" />
		<path fill="#FFFFFF" d="M90.9,172.3c-45.1-0.1-81.6-36.6-81.5-81.6C9.6,45.6,46.2,9.1,91.1,9.3c45.2,0.2,81.4,36.5,81.4,81.5
				C172.5,135.9,135.9,172.4,90.9,172.3z M46.8,57c8.7,25.9,17.4,51.8,26.2,78c0.2-0.6,0.3-0.8,0.4-1c5.1-15.2,10.1-30.3,15.1-45.5
				c0.2-0.5,0.1-1.2-0.1-1.7c-3.5-9.6-7-19.3-10.5-28.9c-0.3-0.7-0.6-1-1.4-1c-2.2-0.2-4.5-0.4-6.7-0.7c-1.7-0.2-2.6-1.4-2.5-3
				c0.1-2.1,1.6-3.1,4.1-2.9c9.6,0.7,19.1,1.2,28.7,0.5c2.9-0.2,5.7-0.4,8.6-0.5c1.8-0.1,3.1,1,3.2,2.6c0.2,1.8-0.8,3.1-2.7,3.3
				c-0.8,0.1-1.5,0.2-2.3,0.3c-1.9,0.2-3.8,0.3-5.9,0.5c8.7,25.9,17.3,51.5,26,77.3c0.2-0.3,0.3-0.4,0.3-0.5
				c3.7-11.9,7.5-23.8,10.9-35.8c2.6-9.1,2.2-18.1-2.2-26.7c-1.8-3.4-3.8-6.7-5.7-10c-1.7-3.1-3.1-6.3-3.5-9.8
				c-0.7-6.6,3.9-12.8,10.4-13.9c0.7-0.1,1.5-0.1,2.3-0.2C104.9,6.1,52.6,16.2,30.9,51.1c0.9,0,1.8,0.1,2.6,0.1
				c6.8-0.3,13.6-0.6,20.4-0.9c2.2-0.1,3.6,0.8,3.8,2.7c0.2,1.8-0.9,3.1-3,3.3C52.1,56.6,49.5,56.8,46.8,57z M92.4,97.6
				c-0.1,0-0.2,0-0.3,0c-7.2,20.8-14.3,41.6-21.5,62.6c15,4.3,29.7,3.9,44.2-1.1c-3.8-10.3-7.5-20.5-11.2-30.7
				C99.9,118,96.1,107.8,92.4,97.6z M59.3,155.6C47.9,124.2,36.5,93,25,61.6C9.2,96.6,24.4,139.1,59.3,155.6z M154.5,56.7
				c0.7,5.9,0.5,11.5-0.5,17.1c-1,5.7-3,11.2-4.9,16.7C142,110.7,135,131,128,151.3c-0.2,0.5-0.3,1.1-0.6,1.8
				C162.7,132.6,172.2,88.3,154.5,56.7z"/>
		<path d="M46.8,57c2.7-0.3,5.3-0.5,7.9-0.8c2.1-0.2,3.2-1.5,3-3.3c-0.2-1.8-1.6-2.8-3.8-2.7c-6.8,0.3-13.6,0.6-20.4,0.9
				c-0.9,0-1.7-0.1-2.6-0.1c21.7-34.9,74.1-45,108.6-13.7c-0.9,0.1-1.6,0.1-2.3,0.2c-6.5,1.1-11.1,7.3-10.4,13.9
				c0.4,3.6,1.7,6.8,3.5,9.8c1.9,3.4,4,6.6,5.7,10c4.4,8.6,4.8,17.6,2.2,26.7c-3.4,12-7.2,23.8-10.9,35.8c0,0.1-0.1,0.2-0.3,0.5
				c-8.7-25.8-17.3-51.4-26-77.3c2-0.2,4-0.3,5.9-0.5c0.8-0.1,1.6-0.1,2.3-0.3c1.8-0.3,2.9-1.6,2.7-3.3c-0.2-1.7-1.4-2.7-3.2-2.6
				c-2.9,0.1-5.7,0.3-8.6,0.5c-9.6,0.7-19.2,0.2-28.7-0.5c-2.5-0.2-4,0.8-4.1,2.9c-0.1,1.7,0.9,2.8,2.5,3c2.2,0.3,4.5,0.5,6.7,0.7
				c0.7,0.1,1.1,0.3,1.4,1c3.5,9.6,7,19.3,10.5,28.9c0.2,0.5,0.2,1.2,0.1,1.7c-5,15.2-10.1,30.3-15.1,45.5c-0.1,0.2-0.2,0.4-0.4,1
				C64.2,108.8,55.5,83,46.8,57z"/>
		<path d="M92.4,97.6c3.7,10.2,7.5,20.5,11.2,30.7c3.7,10.2,7.4,20.4,11.2,30.7c-14.6,5-29.2,5.4-44.2,1.1
				c7.2-20.9,14.4-41.7,21.5-62.6C92.2,97.6,92.3,97.6,92.4,97.6z"/>
		<path d="M59.3,155.6C24.4,139.1,9.2,96.6,25,61.6C36.5,93,47.9,124.2,59.3,155.6z"/>
		<path d="M154.5,56.7c17.8,31.6,8.2,76-27,96.4c0.2-0.7,0.4-1.2,0.6-1.8c7-20.3,14-40.6,21.1-60.9c1.9-5.5,3.9-10.9,4.9-16.7
				C155,68.2,155.2,62.6,154.5,56.7z"/>
	</g>
</svg>