<svg version="1.1"
	 xmlns="http://www.w3.org/2000/svg" xmlns:xlink="http://www.w3.org/1999/xlink" xmlns:a="http://ns.adobe.com/AdobeSVGViewerExtensions/3.0/"
	 x="0px" y="0px" width="572.9px" height="572.8px" viewBox="0 0 572.9 572.8" enable-background="new 0 0 572.9 572.8"
	 xml:space="preserve">
<defs>
</defs>
<g>
	<path fill="#49423D" d="M572.8,291.4C569.9,449,440.3,576,280.4,572.8C123.3,569.6-2.6,440.3,0,281.4C2.7,123.8,132.6-3.2,292.4,0.1
		C449.5,3.3,575.3,132.6,572.8,291.4z M109.3,286c0,17.3,0.1,34.7,0,52c-0.1,7.1,2.7,12.3,8.7,16.3
		c52.8,35.1,105.6,70.3,158.3,105.5c6.9,4.6,13.4,4.6,20.3,0c52.7-35.3,105.5-70.4,158.3-105.5c6-4,8.7-9.2,8.7-16.3
		c-0.1-34.3-0.1-68.6,0-103c0-7.3-2.7-12.6-8.9-16.7c-52.7-35-105.3-70.1-157.9-105.3c-7.1-4.8-13.7-4.8-20.8,0
		c-52.6,35.2-105.2,70.3-157.9,105.3c-6.2,4.1-8.9,9.4-8.9,16.7C109.4,252.1,109.3,269,109.3,286z"/>
	<path fill="#FFFFFF" d="M109.3,286c0-17,0.1-34,0-51c-0.1-7.3,2.7-12.6,8.9-16.7c52.7-35,105.3-70.1,157.9-105.3
		c7.1-4.8,13.7-4.8,20.8,0c52.6,35.2,105.2,70.3,157.9,105.3c6.2,4.1,8.9,9.4,8.9,16.7c-0.1,34.3-0.1,68.6,0,103
		c0,7.1-2.7,12.3-8.7,16.3c-52.8,35.1-105.6,70.3-158.3,105.5c-7,4.6-13.4,4.6-20.3,0c-52.7-35.3-105.5-70.4-158.3-105.5
		c-6-4-8.7-9.2-8.7-16.3C109.4,320.7,109.3,303.4,109.3,286z M271.1,153c-40.2,26.8-79.5,53-119.2,79.4c17.5,11.7,34.3,23,51.3,34.2
		c1,0.7,3.2,0.5,4.3-0.2c20.4-13.5,40.8-27.1,61.1-40.8c1.2-0.8,2.4-2.5,2.4-3.9C271.2,199.3,271.1,176.8,271.1,153z M302.2,153.3
		c-0.2,1.5-0.4,2.1-0.4,2.8c0,21.7-0.1,43.3,0.1,65c0,1.7,1.6,3.9,3.1,5c19.8,13.5,39.8,26.7,59.7,40.2c2.4,1.6,3.9,1.5,6.1-0.1
		c8.9-6.1,18-12.1,27-18.1c7.6-5.1,15.2-10.2,23.2-15.5C381.2,206,342,179.9,302.2,153.3z M152,340.4c39.7,26.5,79,52.6,118.3,78.9
		c0.5-0.9,0.7-1.2,0.7-1.4c0-22.2,0.1-44.3,0-66.5c0-1.4-1.3-3.4-2.6-4.2c-20.1-13.6-40.3-27.1-60.7-40.5c-1.2-0.8-3.8-0.7-5.1,0
		c-7.1,4.4-13.9,9.1-20.8,13.8C172,326.9,162.2,333.5,152,340.4z M420.9,340.4c-17.5-11.7-34.4-23.1-51.4-34.2
		c-1.1-0.7-3.7-0.1-5.1,0.8c-19.9,13.1-39.6,26.5-59.5,39.6c-2.6,1.7-3.3,3.6-3.3,6.5c0.1,20.5,0,41,0.1,61.5c0,1.4,0.2,2.8,0.4,4.9
		C341.9,393,381.1,366.9,420.9,340.4z M232.6,286.4c17.6,11.8,34.5,23.2,51.7,34.4c1.2,0.8,4.1,0.2,5.5-0.7
		c13-8.4,25.8-17.1,38.6-25.7c3.8-2.5,7.6-5.1,11.8-7.9c-17.5-11.7-34.5-23.1-51.6-34.4c-1-0.7-3.3-0.7-4.3,0
		C267.2,263.2,250.2,274.6,232.6,286.4z M177.8,286.4c-12.9-8.6-25.1-16.8-37.6-25.1c0,17.1,0,33.4,0,50.3
		C152.9,303.1,165,295,177.8,286.4z M432.6,311.6c0-17.1,0-33.4,0-50.3c-12.8,8.6-24.9,16.7-37.6,25.2
		C407.8,294.9,419.9,303,432.6,311.6z"/>
	<path fill="#49423D" d="M271.1,153c0,23.8,0,46.3-0.1,68.8c0,1.3-1.3,3.1-2.4,3.9c-20.3,13.7-40.6,27.3-61.1,40.8c-1.1,0.7-3.3,0.9-4.3,0.2
		c-17-11.2-33.8-22.5-51.3-34.2C191.6,206,230.9,179.9,271.1,153z"/>
	<path fill="#49423D" d="M302.2,153.3c39.9,26.6,79,52.7,118.7,79.1c-8,5.4-15.6,10.4-23.2,15.5c-9,6-18,12-27,18.1c-2.2,1.5-3.8,1.7-6.1,0.1
		c-19.9-13.4-39.8-26.7-59.7-40.2c-1.5-1-3.1-3.3-3.1-5c-0.2-21.7-0.1-43.3-0.1-65C301.7,155.5,301.9,154.8,302.2,153.3z"/>
	<path fill="#49423D" d="M152,340.4c10.3-6.9,20.1-13.4,29.9-20c6.9-4.6,13.8-9.4,20.8-13.8c1.3-0.8,3.9-0.8,5.1,0c20.3,13.4,40.5,26.9,60.7,40.5
		c1.3,0.9,2.6,2.8,2.6,4.2c0.1,22.2,0.1,44.3,0,66.5c0,0.3-0.3,0.5-0.7,1.4C230.9,393,191.7,366.9,152,340.4z"/>
	<path fill="#49423D" d="M420.9,340.4c-39.8,26.5-79,52.6-118.8,79.2c-0.2-2.2-0.4-3.6-0.4-4.9c0-20.5,0-41-0.1-61.5c0-2.9,0.7-4.8,3.3-6.5
		c19.9-13.1,39.6-26.4,59.5-39.6c1.3-0.9,4-1.5,5.1-0.8C386.5,317.3,403.3,328.6,420.9,340.4z"/>
	<path fill="#49423D" d="M232.6,286.4c17.6-11.8,34.6-23.2,51.7-34.4c1-0.7,3.3-0.6,4.3,0c17.1,11.2,34.1,22.6,51.6,34.4c-4.2,2.8-8,5.4-11.8,7.9
		c-12.9,8.6-25.7,17.3-38.6,25.7c-1.4,0.9-4.3,1.5-5.5,0.7C267.1,309.6,250.2,298.2,232.6,286.4z"/>
	<path fill="#49423D" d="M177.8,286.4c-12.8,8.5-24.9,16.6-37.6,25.1c0-16.9,0-33.2,0-50.3C152.8,269.7,165,277.8,177.8,286.4z"/>
	<path fill="#49423D" d="M432.6,311.6c-12.7-8.5-24.8-16.6-37.6-25.1c12.6-8.5,24.8-16.6,37.6-25.2C432.6,278.2,432.6,294.5,432.6,311.6z"/>
</g>
</svg>