<?xml version="1.0" encoding="utf-8"?>
<!-- Generator: Adobe Illustrator 21.1.0, SVG Export Plug-In . SVG Version: 6.00 Build 0)  -->
<svg version="1.1" id="圖層_1" xmlns="http://www.w3.org/2000/svg" xmlns:xlink="http://www.w3.org/1999/xlink" x="0px" y="0px"
	 width="293px" height="560.9px" viewBox="0 0 293 560.9" enable-background="new 0 0 293 560.9" xml:space="preserve">
<g>
	<path fill="#272221" d="M257,557.5H37.3C19.4,557.5,4.8,543,4.8,525V35C4.8,17,19.4,2.5,37.3,2.5H257C275,2.5,289.5,17,289.5,35
		V525C289.5,543,275,557.5,257,557.5z"/>
	<path fill="#2E2729" d="M5.8,101.3H5c-1.4,0-2.5-1.1-2.5-2.5V64.1c0-1.4,1.1-2.5,2.5-2.5h0.8c1.4,0,2.5,1.1,2.5,2.5v34.7
		C8.3,100.2,7.2,101.3,5.8,101.3z"/>
	<path fill="#2E2729" d="M5.8,152.6H5c-1.4,0-2.5-1.1-2.5-2.5v-34.7c0-1.4,1.1-2.5,2.5-2.5h0.8c1.4,0,2.5,1.1,2.5,2.5v34.7
		C8.3,151.5,7.2,152.6,5.8,152.6z"/>
	<path fill="#2E2729" d="M289.4,172.5h-0.8c-1.4,0-2.5-1.1-2.5-2.5v-34.7c0-1.4,1.1-2.5,2.5-2.5h0.8c1.4,0,2.5,1.1,2.5,2.5V170
		C291.9,171.4,290.7,172.5,289.4,172.5z"/>
	<path fill="none" stroke="#191919" stroke-miterlimit="10" d="M256.7,555.2H37.6c-17.1,0-31-13.9-31-31V35.8c0-17.1,13.9-31,31-31
		h219.1c17.1,0,31,13.9,31,31v488.3C287.8,541.3,273.9,555.2,256.7,555.2z"/>
	<path opacity="0.19" fill="#282324" d="M257,557.5H37.3C19.4,557.5,4.8,543,4.8,525V35C4.8,17,19.4,2.5,37.3,2.5H257
		C275,2.5,289.5,17,289.5,35V525C289.5,543,275,557.5,257,557.5z"/>
	<circle fill="#49424A" cx="79.5" cy="27.1" r="6.6"/>
	<circle opacity="0.19" cx="79.5" cy="27.1" r="3.6"/>
	<circle opacity="0.19" cx="206.5" cy="27.1" r="3.6"/>
	
		<ellipse transform="matrix(0.7071 -0.7071 0.7071 0.7071 47.7248 169.4554)" opacity="0.19" fill="#806A60" cx="228.4" cy="27.1" rx="6.1" ry="6.1"/>
	<path fill="#181618" d="M163.8,29.3h-33.2c-1.3,0-2.4-1.1-2.4-2.4v-0.8c0-1.3,1.1-2.4,2.4-2.4h33.2c1.3,0,2.4,1.1,2.4,2.4v0.8
		C166.2,28.2,165.1,29.3,163.8,29.3z"/>
	<g>
		<defs>
			<path id="SVGID_1_" d="M163.8,29.3h-33.2c-1.3,0-2.4-1.1-2.4-2.4v-0.8c0-1.3,1.1-2.4,2.4-2.4h33.2c1.3,0,2.4,1.1,2.4,2.4v0.8
				C166.2,28.2,165.1,29.3,163.8,29.3z"/>
		</defs>
		<clipPath id="SVGID_2_">
			<use xlink:href="#SVGID_1_"  overflow="visible"/>
		</clipPath>
		<path clip-path="url(#SVGID_2_)" fill="#000909" d="M163.8,30.8h-33.2c-1.3,0-2.4-1.1-2.4-2.4v-0.8c0-1.3,1.1-2.4,2.4-2.4h33.2
			c1.3,0,2.4,1.1,2.4,2.4v0.8C166.2,29.7,165.1,30.8,163.8,30.8z"/>
	</g>
	<path fill="#171417" d="M269.6,46H24.7c-5.7,0-10.2,4.6-10.2,10.2v455.6c0,5.7,4.6,10.2,10.2,10.2h244.9c5.7,0,10.2-4.6,10.2-10.2
		V56.3C279.9,50.6,275.3,46,269.6,46z"/>
	<g opacity="0.58">
		<g>
			<path fill="none" stroke="#FEFDFF" stroke-linecap="round" stroke-linejoin="round" stroke-miterlimit="10" d="M72,504.1h8.4
				c1.4,0,2.6-1,2.6-2.3v-2.5"/>
			<path fill="none" stroke="#FEFDFF" stroke-linecap="round" stroke-linejoin="round" stroke-miterlimit="10" d="M82.5,506.5h-8.4
				c-1.4,0-2.6,1-2.6,2.3v2.5"/>
		</g>
		<g>
			<path fill="none" stroke="#FEFDFF" stroke-linecap="round" stroke-linejoin="round" stroke-miterlimit="10" d="M152.5,500.3h-8.2
				c-1,0-1.8,0.8-1.8,1.8v8.2"/>
			<path fill="none" stroke="#FEFDFF" stroke-linecap="round" stroke-linejoin="round" stroke-miterlimit="10" d="M152.5,502.8v5.7
				c0,1-0.8,1.8-1.8,1.8h-5.9"/>
		</g>
		<g>
			<path fill="none" stroke="#F9F9FC" stroke-linecap="round" stroke-linejoin="round" stroke-miterlimit="10" d="M217.2,499.4
				l-4.7,5c-0.3,0.3-0.1,0.8,0.4,0.8h9.9"/>
			
				<line fill="none" stroke="#F9F9FC" stroke-linecap="round" stroke-linejoin="round" stroke-miterlimit="10" x1="217.3" y1="511.2" x2="213.5" y2="507.3"/>
		</g>
	</g>
	<linearGradient id="SVGID_3_" gradientUnits="userSpaceOnUse" x1="385.6297" y1="271.4886" x2="145.5787" y2="273.8191">
		<stop  offset="0" style="stop-color:#6E6E6E"/>
		<stop  offset="1" style="stop-color:#454545"/>
	</linearGradient>
	<path opacity="0.24" fill="url(#SVGID_3_)" d="M257,545.1H37.3c-17.9,0-32.5-14.5-32.5-32.5V35C4.8,17,19.4,2.5,37.3,2.5H257
		C275,2.5,289.5,17,289.5,35v477.7C289.5,530.6,275,545.1,257,545.1z"/>
</g>
</svg>
