<svg version="1.1" 
  xmlns="http://www.w3.org/2000/svg" 
  xmlns:xlink="http://www.w3.org/1999/xlink" 
  xmlns:a="http://ns.adobe.com/AdobeSVGViewerExtensions/3.0/" x="0px" y="0px" viewBox="-17 -17 192 192" enable-background="new 0 0 400 400" xml:space="preserve">
  <defs>
    <filter id="noise">
      <feTurbulence type="fractalNoise" baseFrequency="0.15" result="noisy" />
      <feDisplacementMap in="SourceGraphic" in2="noisy" scale="6" xChannelSelector="G" yChannelSelector="R"/>
    </filter>
    <rect id="SVGID_1_" width="157.7" height="157.7"/>
  </defs>
  <clipPath filter="url(#noise)" id="SVGID_2_">
		<use xlink:href="#SVGID_1_"  overflow="visible"/>
	</clipPath>
	<g filter="url(#noise)" clip-path="url(#SVGID_2_)">
		<path fill="#FD5E17" d="M78.9,158.5c-25.7,0-51.5,0-77.2,0c-1.4,0-1.7-0.4-1.7-1.7c0-51.5,0-103,0-154.5c0-1.4,0.3-1.8,1.8-1.8
			c51.5,0,103,0,154.5,0c1.5,0,1.8,0.4,1.8,1.8c0,51.5,0,103,0,154.5c0,1.3-0.3,1.7-1.7,1.7C130.5,158.4,104.7,158.5,78.9,158.5z
			 M79.1,8.4c-23.2,0-46.3,0-69.5,0c-1.4,0-1.7,0.4-1.7,1.7c0,46.2,0,92.5,0,138.7c0,1.4,0.3,1.8,1.8,1.8c46.2,0,92.5,0,138.7,0
			c1.5,0,1.8-0.4,1.8-1.8c0-46.2,0-92.5,0-138.7c0-1.3-0.3-1.7-1.7-1.7C125.3,8.4,102.2,8.4,79.1,8.4z"/>
		<path fill="#0E0705" d="M79.1,8.4c23.1,0,46.2,0,69.3,0c1.4,0,1.7,0.4,1.7,1.7c0,46.2,0,92.5,0,138.7c0,1.4-0.3,1.8-1.8,1.8
			c-46.2,0-92.5,0-138.7,0c-1.5,0-1.8-0.4-1.8-1.8c0-46.2,0-92.5,0-138.7c0-1.3,0.3-1.7,1.7-1.7C32.8,8.4,55.9,8.4,79.1,8.4z
			 M96.9,111.7c-0.1-0.4-0.1-0.7-0.2-1C89.9,89.8,83.2,68.9,76.5,48c-0.3-0.8-0.7-1.1-1.5-1.1c-4.1,0.1-8.1,0.1-12.2,0
			c-1.2,0-1.6,0.3-1.9,1.4c-5.3,16.9-10.7,33.8-16,50.7c-1.3,4.1-2.6,8.3-4,12.6c3.5,0,6.9-0.1,10.2,0c1.3,0,1.9-0.3,2.3-1.6
			c1.4-5,3-10,4.5-15.1c0.3-1,0.7-1.4,1.8-1.4c5.8,0.1,11.7,0.1,17.5,0c1.1,0,1.5,0.4,1.8,1.4c1.6,5.2,3.3,10.3,4.9,15.4
			c0.2,0.6,0.2,1.3,1.1,1.3C89,111.7,92.9,111.7,96.9,111.7z M104.9,88.5c0,7.3,0,14.6,0,21.9c0,1,0.3,1.3,1.3,1.3
			c3.1-0.1,6.1-0.1,9.2,0c1,0,1.3-0.2,1.2-1.2c0-14.6,0-29.2,0-43.7c0-1-0.3-1.3-1.2-1.2c-3,0.1-6,0.1-9,0c-1.2,0-1.5,0.3-1.5,1.5
			C105,74.2,104.9,81.3,104.9,88.5z M117.3,53.4c0-3.8-2.7-6.4-6.5-6.4c-3.7,0-6.5,2.7-6.5,6.3c0,3.6,2.8,6.3,6.4,6.3
			C114.5,59.5,117.3,56.9,117.3,53.4z"/>
		<path fill="#FD5E17" d="M96.9,111.7c-4,0-7.8,0-11.7,0c-0.9,0-0.9-0.7-1.1-1.3c-1.7-5.1-3.3-10.3-4.9-15.4c-0.3-1-0.7-1.4-1.8-1.4
			c-5.8,0.1-11.7,0.1-17.5,0c-1.2,0-1.5,0.4-1.8,1.4c-1.5,5-3.1,10-4.5,15.1c-0.4,1.3-1,1.7-2.3,1.6c-3.4-0.1-6.7,0-10.2,0
			c1.4-4.3,2.7-8.5,4-12.6c5.3-16.9,10.7-33.8,16-50.7c0.3-1.1,0.8-1.5,1.9-1.4c4.1,0.1,8.1,0.1,12.2,0c0.9,0,1.3,0.3,1.5,1.1
			c6.7,20.9,13.4,41.8,20.1,62.6C96.7,111,96.8,111.3,96.9,111.7z M68.5,57.1c-0.2,0.3-0.3,0.3-0.4,0.4c-2.1,8.9-4.8,17.6-7.6,26.3
			c-0.3,1,0.2,1,0.9,1c4.6,0,9.3,0,13.9,0c1.1,0,1.3-0.2,1-1.3C73.6,74.8,70.5,66.2,68.5,57.1z"/>
		<path fill="#FD5E17" d="M104.9,88.5c0-7.2,0-14.3,0-21.5c0-1.2,0.3-1.5,1.5-1.5c3,0.1,6,0.1,9,0c1,0,1.2,0.3,1.2,1.2
			c0,14.6,0,29.2,0,43.7c0,1-0.3,1.2-1.2,1.2c-3.1-0.1-6.1-0.1-9.2,0c-1,0-1.3-0.3-1.3-1.3C105,103.1,104.9,95.8,104.9,88.5z"/>
		<path fill="#FD5E17" d="M117.3,53.4c0,3.6-2.8,6.2-6.6,6.2c-3.7,0-6.5-2.8-6.4-6.3c0-3.6,2.8-6.3,6.5-6.3
			C114.6,46.9,117.3,49.6,117.3,53.4z"/>
		<path fill="#0E0705" d="M68.5,57.1c2,9.1,5.1,17.7,7.8,26.4c0.3,1.1,0.1,1.3-1,1.3c-4.6,0-9.3,0-13.9,0c-0.7,0-1.2,0-0.9-1
			c2.8-8.7,5.5-17.4,7.6-26.3C68.2,57.5,68.3,57.4,68.5,57.1z"/>
	</g>
</svg>