<svg version="1.1" 
	xmlns="http://www.w3.org/2000/svg" 
	xmlns:xlink="http://www.w3.org/1999/xlink" 
	xmlns:a="http://ns.adobe.com/AdobeSVGViewerExtensions/3.0/" x="0px" y="0px" viewBox="-17 -17 192 192" enable-background="new 0 0 400 400" xml:space="preserve">
	<defs>
		<filter id="noise">
			<feTurbulence type="fractalNoise" baseFrequency="0.15" result="noisy" />
			<feDisplacementMap in="SourceGraphic" in2="noisy" scale="6" xChannelSelector="G" yChannelSelector="R"/>
		</filter>
	</defs>
	<g filter="url(#noise)" >
		<g>
			<path fill="#8CB72D" d="M0,70.7c0.3-0.6,0.3-1.2,0.5-1.8c0.9-3,2.5-5.4,5.2-7c4.5-2.7,10.1-1.5,13.3,2.7c1.6,2.1,2.5,4.6,2.5,7.3
				c0,15.3,0,30.6,0,45.9c0,3.7-1.5,6.9-4.5,9.2c-4.9,3.9-11.8,2.5-15.2-3.1c-0.9-1.5-1.5-3.1-1.7-4.9c0-0.1-0.1-0.3-0.1-0.4
				C0,102.7,0,86.7,0,70.7z"/>
			<path fill="#8CB72D" d="M77.8,62c16.5,0,33,0,49.5,0c0.7,0,0.9,0.1,0.9,0.9c0,24.9-0.1,49.7,0,74.6c0,3.8-4.6,9.5-9.2,9.2
				c-3.4-0.2-6.8,0-10.2-0.1c-0.6,0-0.8,0.2-0.8,0.8c0,8.3,0,16.6,0,25c0,3.9-1.4,7.3-4.5,9.8c-5.5,4.4-13.4,2.1-16.1-4.7
				c-0.7-1.6-1-3.4-1-5.1c0-8.2,0-16.4,0-24.7c0-1.1,0.2-1-1-1c-5.1,0-10.2,0-15.3,0c-1.2,0-1-0.2-1,1c0,8.2,0,16.3,0,24.5
				c0,3.4-1,6.4-3.3,8.9c-4.9,5.2-12.9,4.1-16.5-2.1c-1.3-2.2-1.7-4.6-1.7-7.1c0-8.1,0-16.2,0-24.4c0-0.7-0.2-0.9-0.9-0.9
				c-3.2,0-6.5-0.1-9.7,0c-3.2,0.1-5.5-1.4-7.5-3.7c-1.5-1.8-2.2-3.8-2.2-6.2c0-24.6,0-49.2,0-73.8c0-1.1-0.1-1,1-1
				C44.8,62,61.3,62,77.8,62z"/>
			<path fill="#8CB72D" d="M77.7,56.2c-16.3,0-32.7,0-49,0c-0.8,0-1-0.2-0.9-1c0.3-10.2,3.9-19,10.4-26.8c4.2-5,9.3-8.9,15.1-11.8
				c0.7-0.3,0.6-0.6,0.3-1.1c-2.6-4.5-5.2-9-7.8-13.5c-0.1-0.2-0.2-0.3-0.3-0.5c-0.3-0.6-0.2-1,0.4-1.4c0.6-0.3,1,0,1.3,0.4
				c1.1,1.9,2.2,3.7,3.3,5.6c1.7,2.9,3.4,5.8,5,8.7c0.3,0.5,0.5,0.6,1,0.3c6.1-2.6,12.4-4,19.1-4.3c8.2-0.3,16,1.1,23.6,4.3
				c0.6,0.3,0.8,0.1,1.1-0.4c2.7-4.6,5.3-9.2,8-13.9c0.1-0.2,0.3-0.5,0.5-0.7c0.3-0.3,0.7-0.4,1.1-0.1c0.4,0.3,0.6,0.6,0.4,1.1
				c-0.1,0.2-0.2,0.5-0.4,0.7c-2.6,4.6-5.2,9.1-7.9,13.7c-0.3,0.5-0.3,0.7,0.3,1c8.8,4.5,15.8,10.9,20.5,19.7c3.2,5.9,4.9,12.3,5,19.1
				c0,0.7-0.2,0.8-0.8,0.8C110.5,56.2,94.1,56.2,77.7,56.2z M54,39.7c2.7,0,4.8-2.1,4.8-4.7c0-2.6-2.2-4.7-4.7-4.7
				c-2.6,0-4.8,2.2-4.8,4.8C49.2,37.7,51.4,39.7,54,39.7z M101.6,39.7c2.6,0,4.7-2.1,4.7-4.7c0-2.6-2.1-4.8-4.7-4.8
				c-2.6,0-4.8,2.2-4.7,4.8C96.8,37.7,98.9,39.7,101.6,39.7z"/>
			<path fill="#8CB72D" d="M155.5,94.9c0,7.4,0,14.9,0,22.3c0,3.6-1.2,6.8-3.9,9.3c-5.1,4.6-12.5,3.3-16-2.8c-1.1-1.9-1.6-3.9-1.7-6
				c0-15.2-0.1-30.4,0-45.6c0-4.1,1.7-7.5,5.1-9.8c5.1-3.5,11.7-1.7,14.9,3.9c1.1,2,1.6,4.2,1.6,6.4C155.5,80,155.5,87.5,155.5,94.9z"
				/>
		</g>
	</g>
</svg>