<svg version="1.1" 
	xmlns="http://www.w3.org/2000/svg" 
	xmlns:xlink="http://www.w3.org/1999/xlink" 
	xmlns:a="http://ns.adobe.com/AdobeSVGViewerExtensions/3.0/" x="0px" y="0px" viewBox="-17 -17 192 192" enable-background="new 0 0 400 400" xml:space="preserve">
	<defs>
		<filter id="noise">
			<feTurbulence type="fractalNoise" baseFrequency="0.15" result="noisy" />
			<feDisplacementMap in="SourceGraphic" in2="noisy" scale="6" xChannelSelector="G" yChannelSelector="R"/>
		</filter>
		<rect id="SVGID_1_" width="173" height="173"/>
	</defs>
	<g filter="url(#noise)" >
		<g>
			<path fill="#2A4290" d="M0,0c49.4,0,98.9,0,148.3,0c-0.1,1.2-0.2,2.4-0.3,3.6c-0.9,10.3-1.8,20.5-2.8,30.8c-1,10.5-1.9,21-2.9,31.5
				c-0.9,10.2-1.8,20.3-2.8,30.5c-1,10.5-1.9,21-2.9,31.5c-0.7,8-1.5,15.9-2.2,23.9c-0.1,0.9-0.4,1.4-1.4,1.7
				c-19.3,5.2-38.7,10.5-58,15.8c-0.7,0.2-1.4,0.2-2.1,0c-19.3-5.3-38.5-10.6-57.8-15.8c-1-0.3-1.4-0.6-1.5-1.7c-0.7-8-1.5-16-2.2-24
				c-0.9-10.3-1.8-20.5-2.8-30.8C7.9,86.5,6.9,76.1,6,65.7C5,55.5,4.1,45.2,3.2,34.9C2.1,23.3,1.1,11.6,0,0z M74.1,90.1
				c0,8,0,16.1,0,24.1c0,0.7,0.1,1.4-0.4,2c-5.1-1.6-10.3-3.2-15.4-4.8c-0.7-0.2-0.9-0.7-1-1.3c-0.4-2.7-0.9-5.4-1.3-8.1
				c-0.1-1.1-0.5-1.4-1.5-1.3c-5.7,0.1-11.4,0.1-17,0c-1.2,0-1.4,0.4-1.3,1.5c0.8,7.7,1.5,15.5,2.2,23.2c0.1,1.4,0.6,1.9,1.9,2.3
				c11.3,3.3,22.6,6.7,34,10.1c0,6,0,11.9,0,17.9c0,2,0,2,1.9,1.4c9.5-2.8,19-5.6,28.5-8.4c5.7-1.7,11.3-3.4,17-5.1
				c0.7-0.2,1.5-0.4,1.6-1.4c0.1-1.2,0.2-2.3,0.3-3.4c0.4-4,0.8-8,1.2-12c0.4-3.9,0.7-7.8,1.1-11.7c0.4-3.8,0.7-7.7,1.1-11.5
				c0.5-5.1,1-10.3,1.5-15.4c0.5-5,0.9-10,1.4-14.9c0.5-5.1,1-10.2,1.5-15.3c0.4-3.9,0.7-7.9,1.1-11.8c0.6-6.1,1.3-12.1,1.9-18.2
				c0.5-5,0.9-10.1,1.4-15.1c0.2-2,0.3-2.1-1.8-2.1c-19.3,0-38.6,0-57.9,0c-1.5,0-2,0.4-2,2c0.1,6.4,0,12.8,0,19.2
				c-0.6,0-1.2,0.1-1.8,0.1c-13.7,0-27.4,0-41,0c-1.2,0-1.6,0.2-1.5,1.5c0.7,6.1,1.3,12.2,1.8,18.3c0.1,1.3,0.6,1.5,1.7,1.4
				c12.8,0,25.6,0,38.4,0c0.6,0,1.1,0,1.7,0c-1.7,1-3.5,1.6-5.2,2.3c-11.2,4.3-22.5,8.7-33.7,13c-0.7,0.3-1.4,0.3-1.3,1.5
				c0.6,6.1,1.2,12.2,1.7,18.3c0.1,1.6,0.6,2,2.2,2C49.4,90,61.8,90.1,74.1,90.1z"/>
			<path fill="#FEFEFE" d="M74.2,137.7c-11.3-3.4-22.6-6.8-34-10.1c-1.3-0.4-1.8-0.9-1.9-2.3c-0.6-7.7-1.4-15.5-2.2-23.2
				c-0.1-1.1,0.1-1.5,1.3-1.5c5.7,0.1,11.3,0.1,17,0c1.1,0,1.4,0.3,1.5,1.3c0.4,2.7,0.9,5.4,1.3,8.1c0.1,0.7,0.3,1.1,1,1.3
				c5.1,1.6,10.3,3.2,15.4,4.8c0.2,0.2,0.5,0.2,0.8,0.1c5.2-1.6,10.4-3.3,15.6-4.9c0.6-0.2,0.9-0.5,0.9-1.2c0.5-6.4,1.1-12.7,1.7-19.1
				c0.1-1-0.2-1.2-1.1-1.2c-5.8,0.1-11.6,0.1-17.4,0.1c-12.4,0-24.7-0.1-37.1,0c-1.6,0-2.1-0.4-2.2-2c-0.5-6.1-1.1-12.2-1.7-18.3
				c-0.1-1.2,0.6-1.2,1.3-1.5c11.2-4.3,22.5-8.7,33.7-13c1.7-0.7,3.5-1.3,5.2-2.3c-0.6,0-1.1,0-1.7,0c-12.8,0-25.6,0-38.4,0
				c-1.1,0-1.6-0.2-1.7-1.4c-0.5-6.1-1.2-12.2-1.8-18.3c-0.1-1.3,0.3-1.5,1.5-1.5c13.7,0,27.4,0,41,0c0.6,0,1.2,0,1.8-0.1
				c0.8,0,1.7,0.1,2.5,0.1c13.4,0,26.8,0,40.2,0c0.7,0,1.7-0.5,1.5,1.1c-0.6,6.1-1.2,12.3-1.7,18.4c-0.1,1.4-0.7,1.8-1.8,2.3
				c-12.7,4.7-25.5,9.5-38.2,14.3c-0.5,0.2-1.2,0.2-1.6,0.9c0.7,0,1.2,0,1.8,0c11.9,0,23.7,0,35.6,0c2.7,0,2.7,0,2.4,2.8
				c-0.8,8.3-1.5,16.6-2.3,24.9c-0.8,8.9-1.6,17.8-2.4,26.7c-0.4,3.9-0.4,3.9-4.2,5C95.3,131.3,84.7,134.5,74.2,137.7z"/>
			<path fill="#3C60A4" d="M74.2,137.7c10.6-3.2,21.2-6.4,31.8-9.5c3.7-1.1,3.8-1.1,4.2-5c0.8-8.9,1.6-17.8,2.4-26.7
				c0.7-8.3,1.5-16.6,2.3-24.9c0.3-2.8,0.3-2.8-2.4-2.8c-11.9,0-23.7,0-35.6,0c-0.5,0-1.1,0-1.8,0c0.5-0.7,1.1-0.7,1.6-0.9
				c12.7-4.8,25.5-9.6,38.2-14.3c1.2-0.4,1.7-0.9,1.8-2.3c0.5-6.2,1-12.3,1.7-18.4c0.2-1.6-0.8-1.1-1.5-1.1c-13.4,0-26.8,0-40.2,0
				c-0.8,0-1.7,0-2.5-0.1c0-6.4,0-12.8,0-19.2c0-1.6,0.5-2,2-2c19.3,0,38.6,0,57.9,0c2,0,2,0,1.8,2.1c-0.5,5-0.9,10.1-1.4,15.1
				c-0.6,6.1-1.3,12.1-1.9,18.2c-0.4,3.9-0.7,7.9-1.1,11.8c-0.5,5.1-1,10.2-1.5,15.3c-0.5,5-1,10-1.4,14.9c-0.5,5.1-1,10.3-1.5,15.4
				c-0.4,3.8-0.7,7.7-1.1,11.5c-0.4,3.9-0.7,7.8-1.1,11.7c-0.4,4-0.8,8-1.2,12c-0.1,1.1-0.3,2.3-0.3,3.4c-0.1,1-0.8,1.2-1.6,1.4
				c-5.6,1.7-11.3,3.4-17,5.1c-9.5,2.8-19,5.6-28.5,8.4c-1.9,0.6-1.9,0.6-1.9-1.4C74.1,149.6,74.2,143.7,74.2,137.7z"/>
			<path fill="#3C60A4" d="M74.1,90.1c5.8,0,11.6,0,17.4-0.1c0.9,0,1.2,0.2,1.1,1.2c-0.6,6.4-1.1,12.7-1.7,19.1
				c-0.1,0.7-0.3,1-0.9,1.2c-5.2,1.6-10.4,3.2-15.6,4.9c-0.3,0.1-0.5,0.1-0.8-0.1c0.6-0.6,0.4-1.3,0.4-2
				C74.2,106.2,74.1,98.1,74.1,90.1z"/>
		</g>
	</g>
</svg>