<svg version="1.1" 
  xmlns="http://www.w3.org/2000/svg" 
  xmlns:xlink="http://www.w3.org/1999/xlink" 
  xmlns:a="http://ns.adobe.com/AdobeSVGViewerExtensions/3.0/" x="0px" y="0px" viewBox="-17 -17 192 192" enable-background="new 0 0 400 400" xml:space="preserve">
  <defs>
    <filter id="noise">
      <feTurbulence type="fractalNoise" baseFrequency="0.15" result="noisy" />
      <feDisplacementMap in="SourceGraphic" in2="noisy" scale="6" xChannelSelector="G" yChannelSelector="R"/>
    </filter>
    <rect id="SVGID_1_" x="0.2" width="157.7" height="157.7"/>
  </defs>
  <clipPath filter="url(#noise)" id="SVGID_2_">
    <use xlink:href="#SVGID_1_" overflow="visible"/>
  </clipPath>
  <g filter="url(#general-noise)" clip-path="url(#SVGID_2_)">
    <path fill="#66B721" d="M78.9,0.7c25.7,0,51.4,0,77.1,0c1.3,0,1.7,0.3,1.7,1.7c0,51.2,0,102.3,0,153.5c0,1.4-0.4,1.7-1.7,1.7
			c-51.4,0-102.8,0-154.2,0c-1.4,0-1.8-0.3-1.8-1.8C0,104.7,0,53.6,0,2.5C0,1,0.4,0.7,1.8,0.7C27.5,0.8,53.2,0.7,78.9,0.7z
			 M78.9,8.6c-23.1,0-46.2,0-69.3,0c-1.3,0-1.8,0.2-1.8,1.7c0,45.9,0,91.8,0,137.8c0,1.4,0.3,1.7,1.7,1.7c46.2,0,92.5,0,138.7,0
			c1.5,0,1.7-0.4,1.7-1.8c0-45.9,0-91.7,0-137.6c0-1.4-0.3-1.8-1.8-1.8C125,8.6,102,8.6,78.9,8.6z"/>
    <path fill="#0A0D05" d="M78.9,8.6c23.1,0,46.2,0,69.3,0c1.4,0,1.8,0.4,1.8,1.8c0,45.9,0,91.7,0,137.6c0,1.3-0.2,1.8-1.7,1.8
			c-46.2,0-92.5,0-138.7,0c-1.4,0-1.7-0.4-1.7-1.7c0-45.9,0-91.8,0-137.8c0-1.5,0.5-1.7,1.8-1.7C32.7,8.6,55.8,8.6,78.9,8.6z
			 M22.3,79.3c0,9.9,0,19.8,0,29.8c0,1.3,0.4,1.7,1.7,1.8c1.8,0,3.6,0.2,5.5,0.4c6.1,0.5,12.2,0.4,18.2-1
			c9.4-2.3,16.5-7.6,20.1-16.8c2.8-7,3.2-14.4,2.3-21.8c-0.9-7.3-3.6-13.6-9.6-18.2c-2.9-2.2-5.9-3.9-9.3-4.9
			c-9.2-2.5-18.5-1.6-27.8-0.4c-1.1,0.2-1,0.8-1,1.5C22.3,59.5,22.3,69.4,22.3,79.3z M93,100.2c-0.6-0.7-0.4-1.5-0.6-2.2
			c-1.9-10.7-4.1-21.2-6.2-31.8c-0.2-1-0.6-1.2-1.5-1.2c-2.6,0-5.1,0.1-7.7,0c-1.2,0-1.6,0.2-1.2,1.5c3.8,14.4,7.5,28.8,11.3,43.2
			c0.2,0.8,0.5,1.2,1.5,1.2c2.5-0.1,4.9-0.1,7.4,0c0.8,0,1.1-0.3,1.4-1.1c1.7-6.3,3.5-12.6,5.2-19c1.1-4.2,1.9-8.4,2.7-13
			c0.2,0.5,0.4,0.7,0.4,0.8c1.6,10.6,4.9,20.7,7.4,31.1c0.2,0.9,0.6,1.2,1.5,1.1c2.3-0.1,4.6-0.1,6.9,0c1.4,0.1,1.8-0.4,2.2-1.7
			c2.9-10.6,5.8-21.1,8.8-31.7c1.1-4.1,2.3-8.2,3.4-12.5c-3.2,0-6.2,0-9.2,0c-0.8,0-0.9,0.5-1.1,1.1c-2,9.6-4.4,19.1-6,28.8
			c-0.3,1.7-0.6,3.4-0.8,5.1c-1.6-6.6-2.9-13.2-4.9-19.7c-1.5-4.7-2.5-9.5-3.6-14.2c-0.2-0.8-0.5-1.2-1.3-1.1c-2.1,0-4.2,0-6.3,0
			c-0.9,0-1.1,0.3-1.3,1.1c-0.5,2.2-1.1,4.3-1.6,6.5C97.3,81.7,94.8,90.9,93,100.2z"/>
    <path fill="#66B721" d="M22.3,79.3c0-9.9,0-19.8,0-29.8c0-0.7-0.2-1.4,1-1.5c9.3-1.2,18.5-2.1,27.8,0.4c3.5,1,6.5,2.7,9.3,4.9
			c6,4.6,8.7,11,9.6,18.2c0.9,7.4,0.5,14.8-2.3,21.8c-3.6,9.2-10.7,14.5-20.1,16.8c-6,1.5-12.1,1.6-18.2,1c-1.8-0.2-3.6-0.4-5.5-0.4
			c-1.3,0-1.7-0.5-1.7-1.8C22.3,99.1,22.3,89.2,22.3,79.3z M32.6,79.3c0,7,0,14.1,0,21.1c0,1.2,0.4,1.7,1.5,1.7
			c2.6,0.1,5.2,0.2,7.8-0.2c6.3-0.8,11.3-3.7,14.2-9.4c3.9-7.9,4.3-16.2,1.7-24.6c-1.9-6.2-6.3-10-12.7-11.5
			c-3.6-0.8-7.2-0.7-10.9-0.3c-1.2,0.1-1.7,0.5-1.7,1.8C32.6,65.1,32.6,72.2,32.6,79.3z"/>
    <path fill="#66B721" d="M93,100.2c1.8-9.3,4.2-18.5,6.6-27.6c0.5-2.2,1.2-4.3,1.6-6.5c0.2-0.8,0.5-1.1,1.3-1.1c2.1,0,4.2,0,6.3,0
			c0.8,0,1.1,0.3,1.3,1.1c1.1,4.8,2.1,9.6,3.6,14.2c2,6.4,3.2,13.1,4.9,19.7c0.3-1.7,0.6-3.4,0.8-5.1c1.6-9.7,4-19.2,6-28.8
			c0.1-0.6,0.3-1.1,1.1-1.1c3,0,6,0,9.2,0c-1.2,4.3-2.3,8.4-3.4,12.5c-2.9,10.6-5.9,21.1-8.8,31.7c-0.3,1.3-0.8,1.8-2.2,1.7
			c-2.3-0.1-4.6-0.1-6.9,0c-0.9,0-1.3-0.3-1.5-1.1c-2.5-10.4-5.7-20.5-7.4-31.1c0-0.2-0.2-0.3-0.4-0.8c-0.8,4.6-1.6,8.8-2.7,13
			c-1.7,6.3-3.5,12.6-5.2,19c-0.2,0.8-0.5,1.1-1.4,1.1c-2.5,0-4.9-0.1-7.4,0c-0.9,0-1.2-0.4-1.5-1.2c-3.7-14.4-7.5-28.8-11.3-43.2
			c-0.4-1.4,0-1.6,1.2-1.5c2.6,0.1,5.1,0,7.7,0c0.9,0,1.3,0.2,1.5,1.2c2.1,10.6,4.3,21.2,6.2,31.8C92.6,98.7,92.4,99.5,93,100.2z"/>
    <path fill="#0A0D05" d="M32.6,79.3c0-7.1,0-14.2,0-21.3c0-1.3,0.5-1.7,1.7-1.8c3.6-0.4,7.3-0.5,10.9,0.3
			C51.5,58,55.8,61.8,57.8,68c2.6,8.4,2.3,16.7-1.7,24.6c-2.9,5.8-7.9,8.6-14.2,9.4c-2.6,0.3-5.2,0.3-7.8,0.2
			c-1.1-0.1-1.5-0.5-1.5-1.7C32.6,93.4,32.6,86.4,32.6,79.3z"/>
  </g>
</svg>
