<svg version="1.1" 
  xmlns="http://www.w3.org/2000/svg" 
  xmlns:xlink="http://www.w3.org/1999/xlink" 
  xmlns:a="http://ns.adobe.com/AdobeSVGViewerExtensions/3.0/" x="0px" y="0px" viewBox="-17 -17 192 192" enable-background="new 0 0 400 400" xml:space="preserve">
  <defs>
    <filter id="noise">
      <feTurbulence type="fractalNoise" baseFrequency="0.15" result="noisy" />
      <feDisplacementMap in="SourceGraphic" in2="noisy" scale="6" xChannelSelector="G" yChannelSelector="R"/>
    </filter>
    <rect id="SVGID_1_" x="0.2" width="157.7" height="157.7"/>
  </defs>
  <clipPath filter="url(#noise)" id="SVGID_2_">
    <use xlink:href="#SVGID_1_" overflow="visible"/>
  </clipPath>
  <g filter="url(#noise)" clip-path="url(#SVGID_2_)">
    <path fill="#F32A7D" d="M0,79.4c0-25.8,0-51.5,0-77.3c0-1.5,0.4-1.8,1.8-1.8c51.5,0,103.1,0,154.6,0c1.3,0,1.7,0.3,1.7,1.7
			c0,51.6,0,103.2,0,154.8c0,1.4-0.4,1.7-1.7,1.7c-51.5,0-103.1,0-154.6,0c-1.4,0-1.8-0.3-1.8-1.8C0.1,131,0,105.2,0,79.4z
			 M79.1,150.6c23.1,0,46.3,0,69.4,0c1.5,0,1.8-0.4,1.8-1.8c0-46.3,0-92.5,0-138.8c0-1.4-0.3-1.7-1.7-1.7c-46.3,0-92.7,0-139,0
			c-1.4,0-1.7,0.4-1.7,1.7c0,46.3,0,92.5,0,138.8c0,1.4,0.3,1.8,1.8,1.8C32.8,150.5,56,150.6,79.1,150.6z"/>
    <path fill="#0F0408" d="M79.1,150.6c-23.1,0-46.3,0-69.4,0c-1.5,0-1.8-0.4-1.8-1.8c0-46.3,0-92.5,0-138.8c0-1.3,0.3-1.7,1.7-1.7
			c46.3,0,92.7,0,139,0c1.4,0,1.7,0.4,1.7,1.7c0,46.3,0,92.5,0,138.8c0,1.4-0.3,1.8-1.8,1.8C125.4,150.5,102.2,150.6,79.1,150.6z
			 M108.2,77.5C108.2,77.5,108.2,77.5,108.2,77.5c0-9.7,0-19.4,0-29.1c0-1.2-0.2-1.7-1.5-1.6c-2.8,0.1-5.7,0.1-8.5,0
			c-1.1,0-1.4,0.3-1.4,1.4c0.1,4.4,0,8.7,0,13.1c0,1.1-0.1,1.7-1.5,1.6c-1.8-0.1-3.7,0-5.5,0.4c-8.7,1.6-15.1,5.9-17.9,14.7
			c-2.1,6.6-1.9,13.3,0.2,19.9c2,6,6,10.1,12,12.1c7.9,2.7,15.6,1.7,23.2-1.6c0.9-0.4,0.9-1,0.9-1.8
			C108.2,96.9,108.2,87.2,108.2,77.5z M61.1,79.3c0-10.3,0-20.7,0-31c0-1.1-0.2-1.5-1.5-1.5c-2.9,0.1-5.8,0.1-8.7,0
			c-1.1,0-1.3,0.3-1.3,1.3c0,20.7,0,41.4,0,62.1c0,1.1,0.2,1.5,1.4,1.4c2.8-0.1,5.7-0.1,8.5,0c1.3,0,1.5-0.4,1.5-1.6
			C61.1,99.8,61.1,89.6,61.1,79.3z"/>
    <path fill="#F32A7D" d="M108.2,77.5c0,9.7,0,19.4,0,29.1c0,0.8,0,1.4-0.9,1.8c-7.5,3.4-15.3,4.3-23.2,1.6c-6-2-10-6.2-12-12.1
			C70,91.3,69.9,84.6,71.9,78c2.7-8.7,9.2-13.1,17.9-14.7c1.8-0.3,3.7-0.5,5.5-0.4c1.4,0.1,1.5-0.5,1.5-1.6c-0.1-4.4,0-8.7,0-13.1
			c0-1.1,0.3-1.4,1.4-1.4c2.8,0.1,5.7,0.1,8.5,0c1.3-0.1,1.5,0.4,1.5,1.6C108.2,58.1,108.2,67.8,108.2,77.5
			C108.2,77.5,108.2,77.5,108.2,77.5z M96.8,86.9c0-4.6,0-9.2,0-13.7c0-0.7,0.1-1.3-0.9-1.4c-6.2-0.5-11.7,3-13.6,9
			c-1.2,3.9-1.3,7.9-0.4,11.8c1.5,7.1,7,9.9,13.4,9.5c1.1-0.1,1.6-0.4,1.6-1.7C96.7,95.9,96.8,91.4,96.8,86.9z"/>
    <path fill="#F32A7D" d="M61.1,79.3c0,10.3,0,20.6,0,30.8c0,1.2-0.2,1.6-1.5,1.6c-2.8-0.1-5.7-0.1-8.5,0c-1.1,0-1.4-0.3-1.4-1.4
			c0-20.7,0-41.4,0-62.1c0-1,0.2-1.4,1.3-1.3c2.9,0.1,5.8,0.1,8.7,0c1.2,0,1.5,0.4,1.5,1.5C61.1,58.6,61.1,69,61.1,79.3z"/>
    <path fill="#0F0408" d="M96.8,86.9c0,4.5-0.1,9.1,0,13.6c0,1.3-0.5,1.6-1.6,1.7c-6.4,0.4-11.9-2.4-13.4-9.5
			c-0.9-4-0.8-7.9,0.4-11.8c1.9-6,7.4-9.5,13.6-9c1.1,0.1,0.9,0.7,0.9,1.4C96.8,77.7,96.8,82.3,96.8,86.9z"/>
  </g>
</svg>