<svg version="1.1" 
	xmlns="http://www.w3.org/2000/svg" 
	xmlns:xlink="http://www.w3.org/1999/xlink" 
	xmlns:a="http://ns.adobe.com/AdobeSVGViewerExtensions/3.0/" x="0px" y="0px" viewBox="-17 -17 192 192" enable-background="new 0 0 400 400" xml:space="preserve">
	<defs>
		<filter id="noise">
			<feTurbulence type="fractalNoise" baseFrequency="0.15" result="noisy" />
			<feDisplacementMap in="SourceGraphic" in2="noisy" scale="6" xChannelSelector="G" yChannelSelector="R"/>
		</filter>
	</defs>
	<g filter="url(#noise)" transform="scale(0.9)" >
		<ellipse fill="#FFFFFF" cx="73.7" cy="101" rx="73.7" ry="101"/>
		<g>
			<path fill="#F67D1E" d="M73.2,95.4C66.3,89.8,60,83.6,55.5,75.7c-4-7-3.3-12.4,1.7-18.7c4.2-5.1,9.5-9,14.6-13.1
				c3.6-2.9,7.2-5.7,10.4-9c7.1-7.1,10.8-15.3,8.6-25.6c1.6-0.1,1.7,1.2,2.1,2c2.7,5.6,2.5,11.2,0.3,16.9c-3.3,8.4-9.4,14.6-16,20.3
				c-3.5,3-7.2,5.8-10.2,9.3c-6.7,7.8-7.4,14.8-2.2,23.7c1.8,3.1,4,6.1,6,9.1c1,1.5,2.2,2.8,2.6,4.6C73.4,95.3,73.3,95.4,73.2,95.4z"
				/>
			<path fill="#506A85" d="M39.6,146.2c-4.4,0.4-8.4,1.4-12.2,3.3c-1.1,0.6-2.7,1-2.5,2.7c0.2,1.4,1.7,1.6,2.8,2
				c7.7,2.6,15.8,3.2,23.8,3.7c17.7,1,35.4,0.4,53-1.7c5.5-0.7,11-1.4,16.2-3.4c2.3-0.9,4.6-1.8,4.3-5.1c2.4,1.3,2.7,2.6,0.9,4.4
				c-1.8,1.8-4.2,2.8-6.6,3.6c-10,3.7-20.5,5.1-31.1,6c-22.1,1.9-44.2,0.9-66.1-2.7c-2.1-0.3-4.3-0.8-6.1-1.9c-2-1.2-2.2-2.6-0.6-4.4
				c0.6-0.7,1.4-1.3,2.2-1.8c5.8-3.4,12.1-5.5,18.9-5.5C37.5,145.4,38.6,145.1,39.6,146.2z"/>
			<path fill="#F67D1E" d="M108.6,42.3c-2.5,1.6-5,3.1-7.5,4.8c-5,3.3-10,6.7-13.9,11.3c-4.1,5-4.5,8.9-1.2,14.4
				c1.3,2.2,2.9,4.3,4.4,6.5c3.5,5.1,3.4,9.5-0.2,14.5c-2.1,3-4.9,5.3-8,7.3c-0.2-0.4-0.4-0.6-0.4-0.6c4.2-6.8,4-9.9-1.1-16.2
				c-2.7-3.4-5-7-5.9-11.4c-1.3-6.6,1.2-11.9,5.8-16.5c6.2-6.2,14-9.8,22.1-12.9c1.8-0.7,3.6-1.2,5.4-1.8
				C108.5,42,108.6,42.1,108.6,42.3z"/>
			<path fill="#506A85" d="M106.8,104c-5.9,4.6-12.8,4.9-19.4,5.8c-15.6,2-31.2,2.5-46.8,0.7c-3.8-0.4-7.7-0.9-11.2-2.5
				c-2.5-1.1-2.6-2.7-0.2-4c7.3-3.8,15-6.3,23.6-6.5c-0.6,1-1.5,1-2.2,1.2c-3,0.9-6.1,1.8-8.9,3.3c-1,0.5-2.6,1-2.3,2.4
				c0.2,1.3,1.6,1.4,2.7,1.6c2.1,0.4,4.2,0.9,6.4,1c18.4,1,36.7-0.2,54.9-3C104.5,104,105.5,103.6,106.8,104z"/>
			<path fill="#506A85" d="M99.8,141.3c-6,2.6-12,4.1-18.3,4.9c-9.2,1.2-18.3,1-27.3-1.4c-2.5-0.6-4.8-1.5-6.9-3
				c-2.8-2-2.7-4.1,0.1-6c1-0.7,2.2-1.1,3.3-1.6c0.3-0.1,1.1-0.3,0.9,0.4c-0.7,3.1,1.9,2.9,3.4,3.2c6.9,1.1,14,1.7,21,1.1
				c4.5-0.4,8.9-1,13.3-1.9c0.8-0.2,1.6-0.3,2.5,0.1C94.4,138.7,97,139.9,99.8,141.3z"/>
			<path fill="#506A85" d="M102.6,124c-6,1.8-11.6,2.9-17.4,3.7c-12.2,1.6-24.4,2-36.6-0.8c-2.3-0.5-4.5-1.2-6.5-2.6
				c-2.3-1.6-2.4-3.4-0.2-5.2c0.6-0.5,1.4-1.1,2.1-1.3c1.1-0.3,3.4-3.3,2.9,1.3c-0.2,2.1,2.6,2.4,4.4,2.6c4.5,0.5,8.9,0.9,13.4,1.1
				c9.1,0.4,18.1-0.6,27.1-2.2c2.8-0.5,5.1-0.5,7.2,1.5C100,122.8,101.1,123.2,102.6,124z"/>
			<path fill="#506A85" d="M38.8,166.7c7.2,0,14.3,0.7,21.4,0.9c19.8,0.6,39.5-0.5,58.9-5.3c5.3-1.3,10.5-3,15-6.7
				c-0.4,3-2.4,4.6-4.5,6c-4.9,3.2-10.4,4.7-16.1,5.6c-23.4,4-46.8,4.4-70.2,0.7c-1.2-0.2-2.4-0.6-3.5-0.9
				C39.4,167,39.1,166.8,38.8,166.7z"/>
			<path fill="#506A85" d="M112.8,98c5.8-3.7,14.1-2.8,18.5,2c3.6,3.9,3.9,9.2,0.8,14c-3,4.6-7.3,7.4-12.2,9.6
				c-3.3,1.5-6.5,3-10.3,3.2c4.6-2.8,9.3-5.6,13-9.6c2.5-2.6,4.5-5.5,4.8-9.3c0.4-6.1-5.3-11.1-11.3-10.1
				C115.1,98,114.1,98.4,112.8,98z"/>
			<path fill="#F67D1E" d="M73.5,95.2c0.4,0.2,0.4,0.5,0.3,0.9c0,0.1-0.1,0.1-0.2,0.2c-0.1-0.3-0.3-0.6-0.4-0.9
				C73.3,95.4,73.4,95.3,73.5,95.2z"/>
		</g>
	</g>
</svg>