<svg version="1.1" 
  xmlns="http://www.w3.org/2000/svg" 
  xmlns:xlink="http://www.w3.org/1999/xlink" 
  xmlns:a="http://ns.adobe.com/AdobeSVGViewerExtensions/3.0/" x="0px" y="0px" viewBox="-17 -17 192 192" enable-background="new 0 0 400 400" xml:space="preserve">
  <defs>
    <filter id="noise">
      <feTurbulence type="fractalNoise" baseFrequency="0.15" result="noisy" />
      <feDisplacementMap in="SourceGraphic" in2="noisy" scale="6" xChannelSelector="G" yChannelSelector="R"/>
    </filter>
    <rect id="SVGID_1_" y="0.1" width="157.7" height="157.7"/>
  </defs>
  <clipPath filter="url(#noise)" id="SVGID_2_">
    <use xlink:href="#SVGID_1_" overflow="visible"/>
  </clipPath>
  <g filter="url(#noise)" clip-path="url(#SVGID_2_)">
    <path fill="#A664AD" d="M79.7,0c25.8,0,51.6,0,77.3,0c1.5,0,2,0.2,1.9,1.9c0,51.7,0,103.4,0,155.1c0,1.5-0.4,1.9-1.9,1.9
			c-51.7,0-103.4,0-155.1,0c-1.6,0-1.9-0.5-1.9-1.9c0-51.7,0-103.3,0-155c0-1.6,0.4-2,2-2C27.9,0.1,53.8,0,79.7,0z M79.3,150.9
			c23.3,0,46.6,0,69.9,0c1.5,0,1.8-0.4,1.8-1.8c0-46.5,0-93,0-139.4c0-1.4-0.3-1.8-1.7-1.8c-46.5,0-93.1,0-139.6,0
			C8.3,7.9,8,8.3,8,9.7c0,46.5,0,93,0,139.4c0,1.4,0.3,1.8,1.8,1.8C33,150.9,56.1,150.9,79.3,150.9z"/>
    <path fill="#0E0805" d="M79.3,150.9c-23.2,0-46.4,0-69.6,0c-1.5,0-1.8-0.4-1.8-1.8c0-46.5,0-93,0-139.4c0-1.4,0.3-1.8,1.7-1.8
			c46.5,0,93.1,0,139.6,0c1.4,0,1.7,0.4,1.7,1.8c0,46.5,0,93,0,139.4c0,1.4-0.3,1.8-1.8,1.8C125.9,150.9,102.6,150.9,79.3,150.9z
			 M41.2,79.7c0,10.1,0,20.2,0,30.3c0,1.2,0.2,1.6,1.5,1.5c2.9-0.1,5.7-0.1,8.6,0c1.3,0,1.7-0.3,1.7-1.6c-0.1-7,0-14.1-0.1-21.1
			c0-1.1,0.2-1.6,1.5-1.4c4.9,0.7,9.8,0.3,14.6-1.1c13-3.7,17.3-14.2,14.8-25.3c-1.7-7.5-8.2-12.6-16.8-13.7
			c-8.1-1.1-16.1-0.5-24.2,0.5c-1.3,0.2-1.5,0.7-1.5,1.8C41.2,59.7,41.2,69.7,41.2,79.7z M91.9,92.6C91.9,92.6,91.9,92.6,91.9,92.6
			c0,5.8,0.1,11.6,0,17.5c0,1.5,0.5,1.8,1.9,1.8c2.7-0.1,5.4-0.1,8.1,0c1.6,0.1,1.9-0.5,1.9-1.9c0-9.6-0.3-19.2,0.2-28.7
			c0.2-3.2,1.9-5.5,5-6.3c2.5-0.6,5-0.8,7.5-0.4c1,0.2,1.5,0,1.5-1.2c-0.1-2.5-0.1-5.1,0-7.6c0-1-0.3-1.3-1.3-1.3
			c-2.9-0.1-5.8,0.1-8.7,0.7c-4.8,1-9.6,2.3-13.6,5.3c-1.7,1.3-2.7,3-2.6,5.3C91.9,81.4,91.9,87,91.9,92.6z"/>
    <path fill="#A664AD" d="M41.2,79.7c0-10,0-20,0-30c0-1.1,0.1-1.6,1.5-1.8c8-1,16.1-1.6,24.2-0.5c8.6,1.1,15.1,6.3,16.8,13.7
			c2.5,11.1-1.7,21.5-14.8,25.3c-4.8,1.4-9.6,1.8-14.6,1.1c-1.3-0.2-1.5,0.3-1.5,1.4c0,7,0,14.1,0.1,21.1c0,1.4-0.4,1.7-1.7,1.6
			c-2.9-0.1-5.7-0.1-8.6,0c-1.2,0-1.5-0.4-1.5-1.5C41.2,99.9,41.2,89.8,41.2,79.7z M52.8,67.2c0,3.2,0,6.4,0,9.5
			c0,0.6-0.2,1.3,0.8,1.4c4.8,0.6,9.6,0.7,14-1.9c3.9-2.3,5.7-6.7,4.9-11.8c-0.7-4.2-3.4-6.8-7.5-7.9c-3.6-1-7.2-0.7-10.9-0.4
			c-1,0.1-1.3,0.5-1.3,1.5C52.8,60.9,52.8,64,52.8,67.2z"/>
    <path fill="#A664AD" d="M91.9,92.6c0-5.6,0.1-11.2,0-16.8c0-2.3,0.9-4,2.6-5.3c4-3.1,8.7-4.3,13.6-5.3c2.9-0.6,5.7-0.8,8.7-0.7
			c0.9,0,1.3,0.3,1.3,1.3c-0.1,2.5-0.1,5.1,0,7.6c0,1.3-0.5,1.4-1.5,1.2c-2.5-0.5-5.1-0.3-7.5,0.4c-3.2,0.8-4.9,3-5,6.3
			c-0.5,9.6-0.2,19.2-0.2,28.7c0,1.5-0.3,2-1.9,1.9c-2.7-0.2-5.4-0.1-8.1,0c-1.4,0.1-1.9-0.2-1.9-1.8C92,104.3,91.9,98.5,91.9,92.6
			C91.9,92.6,91.9,92.6,91.9,92.6z"/>
    <path fill="#0E0805" d="M52.8,67.2c0-3.2,0-6.4,0-9.5c0-1,0.3-1.4,1.3-1.5c3.6-0.4,7.3-0.6,10.9,0.4c4.1,1.1,6.8,3.6,7.5,7.9
			c0.9,5.1-1,9.5-4.9,11.8c-4.4,2.6-9.2,2.5-14,1.9c-1-0.1-0.8-0.8-0.8-1.4C52.8,73.6,52.8,70.4,52.8,67.2z"/>
  </g>
</svg>