<svg version="1.1" 
  xmlns="http://www.w3.org/2000/svg" 
  xmlns:xlink="http://www.w3.org/1999/xlink" 
  xmlns:a="http://ns.adobe.com/AdobeSVGViewerExtensions/3.0/" x="0px" y="0px" viewBox="-17 -17 192 192" enable-background="new 0 0 400 400" xml:space="preserve">
  <defs>
    <filter id="noise">
      <feTurbulence type="fractalNoise" baseFrequency="0.15" result="noisy" />
      <feDisplacementMap in="SourceGraphic" in2="noisy" scale="6" xChannelSelector="G" yChannelSelector="R"/> 
    </filter>
    <rect id="SVGID_1_" width="157.7" height="157.7"/>
  </defs>
  <clipPath filter="url(#noise)" id="SVGID_2_">
		<use xlink:href="#SVGID_1_"  overflow="visible"/>
	</clipPath>
	<g filter="url(#noise)" clip-path="url(#SVGID_2_)">
		<path fill="#58B9C6" d="M157.1,79.1c0,25.7,0,51.3,0,77c0,1.4-0.2,1.8-1.8,1.8c-51,0-102,0-153,0c-1.3,0-1.8-0.2-1.8-1.7
			c0-51.5,0-102.9,0-154.4c0-1.2,0.2-1.7,1.6-1.7c51.1,0,102.2,0,153.3,0c1.4,0,1.6,0.4,1.6,1.7C157.1,27.6,157.1,53.4,157.1,79.1z
			 M8.5,79.2c0,23,0,46.1,0,69.1c0,1.4,0.3,1.8,1.8,1.8c45.8,0,91.6,0,137.3,0c1.5,0,1.8-0.4,1.8-1.8c0-46.1,0-92.2,0-138.3
			c0-1.3-0.3-1.7-1.7-1.7c-45.8,0-91.7,0-137.5,0c-1.4,0-1.7,0.4-1.7,1.7C8.5,33.1,8.5,56.1,8.5,79.2z"/>
		<path fill="#0B0511" d="M8.5,79.2c0-23,0-46.1,0-69.1c0-1.3,0.3-1.7,1.7-1.7c45.8,0,91.7,0,137.5,0c1.4,0,1.7,0.4,1.7,1.7
			c0,46.1,0,92.2,0,138.3c0,1.4-0.3,1.8-1.8,1.8c-45.8,0-91.6,0-137.3,0c-1.5,0-1.8-0.4-1.8-1.8C8.5,125.3,8.5,102.2,8.5,79.2z
			 M39.1,78.9C39.1,78.9,39.1,78.9,39.1,78.9c0,10.2,0,20.4,0,30.6c0,1.1,0.2,1.5,1.4,1.5c2.8-0.1,5.5-0.1,8.3,0
			c1.4,0,1.9-0.3,1.8-1.8c-0.1-6.9,0-13.8-0.1-20.6c0-1.4,0.5-1.5,1.6-1.4c5.9,0.5,11.6,0.1,17.2-2.4c7.5-3.4,11.7-8.9,12.2-17
			c0.4-6.7-1.6-12.5-7.2-16.5c-3.8-2.8-8.3-3.8-12.9-4.1c-6.9-0.5-13.9-0.2-20.8-0.3c-1.3,0-1.5,0.4-1.5,1.6
			C39.2,58.5,39.1,68.7,39.1,78.9z M86.4,99.5c0,2.4,0.1,4.6,0,6.9c-0.1,1.4,0.6,1.9,1.8,2.4c4.6,1.8,9.3,2.3,14.1,2.1
			c3.5-0.2,6.8-1,9.9-2.7c7.6-4.2,9.1-15,2.9-20.8c-2.2-2-4.6-3.7-7.4-4.7c-2.3-0.8-4.5-1.6-6.6-2.9c-1.6-1-2.6-2.4-2.3-4.4
			c0.3-2.1,1.6-3.3,3.5-3.9c2-0.6,4.1-0.4,6.2-0.2c2.9,0.4,5.7,1.1,8.6,2.2c0-2.3-0.1-4.4,0-6.6c0.1-1.2-0.5-1.7-1.4-2
			c-2.2-0.7-4.4-1.4-6.7-1.7c-4.9-0.6-9.6-0.4-14,2c-9.3,4.9-9.8,17-1,22.7c1.8,1.1,3.7,2,5.6,2.7c2,0.7,3.9,1.4,5.7,2.5
			c1.9,1.2,2.7,3,2.4,5.2c-0.3,2.1-1.7,3.2-3.7,3.8c-2.5,0.8-5.1,0.5-7.6,0.1C93,101.8,89.7,101,86.4,99.5z"/>
		<path fill="#58B9C6" d="M39.1,78.9c0-10.2,0-20.3,0-30.5c0-1.2,0.2-1.6,1.5-1.6c6.9,0.2,13.9-0.2,20.8,0.3
			c4.6,0.4,9.1,1.4,12.9,4.1c5.6,4.1,7.6,9.8,7.2,16.5c-0.5,8.2-4.7,13.6-12.2,17c-5.6,2.5-11.3,2.9-17.2,2.4
			c-1.2-0.1-1.6,0-1.6,1.4c0.1,6.9,0,13.8,0.1,20.6c0,1.5-0.5,1.8-1.8,1.8c-2.8-0.1-5.5-0.1-8.3,0c-1.2,0-1.4-0.3-1.4-1.5
			C39.2,99.3,39.2,89.1,39.1,78.9C39.1,78.9,39.1,78.9,39.1,78.9z M56.5,55.9c-1.6,0-3.2,0.1-4.8,0.3c-0.8,0.1-1.1,0.4-1.1,1.2
			c0,6.5,0,12.9,0,19.4c0,0.7,0.2,1,0.9,1.1c4.1,0.6,8.2,0.6,12.1-1.1c4.6-2,6.8-6.1,6.4-11.7c-0.4-4.3-3.2-7.4-8-8.7
			C60.3,55.9,58.4,55.8,56.5,55.9z"/>
		<path fill="#58B9C6" d="M86.4,99.5c3.3,1.4,6.6,2.3,10,2.8c2.5,0.4,5.1,0.7,7.6-0.1c1.9-0.6,3.3-1.7,3.7-3.8
			c0.4-2.2-0.5-4-2.4-5.2c-1.8-1.1-3.7-1.8-5.7-2.5c-2-0.7-3.9-1.6-5.6-2.7c-8.8-5.7-8.3-17.8,1-22.7c4.4-2.3,9.1-2.6,14-2
			c2.3,0.3,4.5,0.9,6.7,1.7c1,0.3,1.5,0.8,1.4,2c-0.1,2.1,0,4.2,0,6.6c-2.9-1.1-5.7-1.8-8.6-2.2c-2.1-0.3-4.2-0.5-6.2,0.2
			c-1.9,0.6-3.2,1.8-3.5,3.9c-0.2,2,0.7,3.4,2.3,4.4c2.1,1.3,4.3,2.1,6.6,2.9c2.9,1,5.3,2.6,7.4,4.7c6.2,5.8,4.6,16.5-2.9,20.8
			c-3.1,1.7-6.4,2.6-9.9,2.7c-4.9,0.2-9.6-0.3-14.1-2.1c-1.2-0.5-1.9-1.1-1.8-2.4C86.5,104.1,86.4,101.9,86.4,99.5z"/>
		<path fill="#0B0511" d="M56.5,55.9c1.9,0,3.7,0,5.6,0.5c4.8,1.2,7.6,4.3,8,8.7c0.5,5.6-1.8,9.7-6.4,11.7c-3.9,1.7-8,1.6-12.1,1.1
			c-0.7-0.1-0.9-0.4-0.9-1.1c0-6.5,0-12.9,0-19.4c0-0.8,0.3-1,1.1-1.2C53.3,56,54.9,55.9,56.5,55.9z"/>
	</g>
</svg>
