<svg version="1.1" 
	xmlns="http://www.w3.org/2000/svg" 
	xmlns:xlink="http://www.w3.org/1999/xlink" 
	xmlns:a="http://ns.adobe.com/AdobeSVGViewerExtensions/3.0/" x="0px" y="0px" viewBox="-25 0 245 205" enable-background="new 0 0 400 400" xml:space="preserve">
	<defs>
		<filter id="noise">
			<feTurbulence type="fractalNoise" baseFrequency="0.15" result="noisy" />
			<feDisplacementMap in="SourceGraphic" in2="noisy" scale="3" xChannelSelector="G" yChannelSelector="R"/>
		</filter>
	</defs>
	<g filter="url(#noise)">
		<ellipse fill="#FFFFFF" cx="99" cy="90" rx="120" ry="120"/>
		<path fill="#6FCFF0" d="M59.4,177.3c-3.5,0-6.7-0.8-9.6-2.4c-9.7-5.6-13.3-20.1-9.9-40.7c0.7-4,1.5-8.2,2.7-12.6
			c-4.3-1.2-8.4-2.5-12.2-4C10.8,110.2,0,99.9,0,88.7s10.8-21.5,30.3-29c3.8-1.5,7.9-2.8,12.2-4c-1.1-4.3-2-8.5-2.7-12.6
			C36.5,22.5,40,8.1,49.8,2.4C59.5-3.2,73.8,1,90,14.2c3.2,2.6,6.4,5.5,9.5,8.6c3.2-3.1,6.4-6,9.5-8.6C125.3,1,139.6-3.2,149.4,2.4
			c9.7,5.6,13.3,20.1,9.9,40.7c-0.7,4-1.5,8.2-2.7,12.6c4.3,1.2,8.4,2.5,12.2,4c19.5,7.4,30.3,17.7,30.3,29s-10.8,21.5-30.3,29
			c-3.8,1.5-7.9,2.8-12.2,4c1.1,4.3,2,8.5,2.7,12.6c3.3,20.6-0.2,35.1-9.9,40.7c-9.7,5.6-24,1.4-40.3-11.8c-3.2-2.6-6.4-5.5-9.5-8.6
			c-3.2,3.1-6.4,6-9.5,8.6C78.5,172.5,68,177.3,59.4,177.3z M48.8,123.2c-1.1,4.1-1.9,8.1-2.6,12c-2.8,17.5-0.4,30,6.8,34.1
			c8.6,5,24.5-2.1,42-19.3c-6.2-6.6-12.2-14.1-18-22.3C67.1,126.7,57.6,125.2,48.8,123.2z M104.1,149.9c17.5,17.3,33.5,24.3,42,19.3
			c7.1-4.1,9.6-16.5,6.8-34.1c-0.6-3.9-1.5-7.9-2.6-12c-8.8,2-18.3,3.5-28.3,4.4C116.3,135.8,110.2,143.4,104.1,149.9z M85.5,128.2
			c4.7,6.4,9.4,12.1,14.1,17.1c4.7-5,9.4-10.7,14.1-17.1C104.4,128.7,94.7,128.7,85.5,128.2z M80.7,121.4c6,0.5,12.3,0.7,18.9,0.7
			c6.6,0,12.9-0.2,18.9-0.7c3.4-5,6.8-10.3,10.1-16l2.8,1.6l-2.8-1.6c3.3-5.7,6.2-11.3,8.8-16.7c-2.7-5.6-5.6-11.2-8.8-16.7
			c-3.3-5.7-6.6-11-10.1-16c-6-0.5-12.3-0.7-18.9-0.7c-6.6,0-12.9,0.2-18.9,0.7c-3.5,5.1-6.9,10.5-10.1,16
			c-3.2,5.6-6.2,11.2-8.8,16.7c2.7,5.6,5.6,11.2,8.8,16.7C73.9,111.1,77.3,116.4,80.7,121.4z M50.6,117c6.6,1.5,13.9,2.8,21.8,3.6
			c-2.5-3.9-5-7.9-7.4-12c-2.4-4.1-4.6-8.2-6.7-12.4C55.2,103.3,52.6,110.3,50.6,117z M140.9,96.3c-2.1,4.1-4.3,8.2-6.7,12.4
			c-2.4,4.1-4.8,8.1-7.4,12c7.8-0.9,15.1-2.1,21.8-3.6C146.5,110.3,143.9,103.3,140.9,96.3z M44.3,61.9C20.6,68.4,6.5,78.8,6.5,88.7
			s14.1,20.2,37.8,26.7c2.6-8.6,6.1-17.6,10.3-26.7C50.4,79.6,46.9,70.6,44.3,61.9z M144.6,88.7c4.2,9.1,7.7,18.1,10.3,26.7
			c23.7-6.5,37.8-16.8,37.8-26.7s-14.1-20.2-37.8-26.7C152.3,70.6,148.8,79.6,144.6,88.7z M126.8,56.7c2.5,3.9,5,7.9,7.4,12l0,0
			c2.4,4.1,4.6,8.3,6.7,12.4c3.2-7.3,5.7-14.2,7.7-20.7C142,58.8,134.7,57.6,126.8,56.7z M50.6,60.3c2,6.7,4.6,13.7,7.7,20.7
			c2.1-4.1,4.3-8.2,6.7-12.4c2.4-4.1,4.8-8.1,7.4-12C64.5,57.6,57.2,58.8,50.6,60.3z M122.1,49.7c10,0.9,19.5,2.4,28.3,4.4
			c6.2-23.8,4.3-41.1-4.3-46.1C139,4,127,8,113.2,19.2c-3,2.5-6.1,5.2-9.1,8.2C110.2,34,116.3,41.5,122.1,49.7z M59.4,6.5
			C57,6.5,54.8,7,53,8.1c-7.1,4.1-9.6,16.5-6.8,34.1c0.6,3.9,1.5,7.9,2.6,12c8.8-2,18.3-3.5,28.3-4.4c5.8-8.2,11.8-15.7,18-22.3
			C81.3,13.8,68.4,6.5,59.4,6.5z M99.6,48.7c4.8,0,9.5,0.1,14.1,0.4c-4.7-6.4-9.4-12-14-17c-4.8,5.1-9.5,10.8-14.1,17
			C90.1,48.9,94.8,48.7,99.6,48.7z M99.6,110.3c-11.9,0-21.6-9.7-21.6-21.6s9.7-21.6,21.6-21.6s21.6,9.7,21.6,21.6
			S111.5,110.3,99.6,110.3z M99.6,73.6c-8.3,0-15.1,6.8-15.1,15.1s6.8,15.1,15.1,15.1s15.1-6.8,15.1-15.1S107.9,73.6,99.6,73.6z"/>
			
	</g>
</svg>