<svg version="1.1" 
  xmlns="http://www.w3.org/2000/svg" 
  xmlns:xlink="http://www.w3.org/1999/xlink" 
  xmlns:a="http://ns.adobe.com/AdobeSVGViewerExtensions/3.0/" x="0px" y="0px" viewBox="17 -9 192 192" enable-background="new 0 0 400 400" xml:space="preserve">
  <defs>
    <filter id="noise">
      <feTurbulence type="fractalNoise" baseFrequency="0.15" result="noisy" />
      <feDisplacementMap in="SourceGraphic" in2="noisy" scale="6" xChannelSelector="G" yChannelSelector="R"/>
    </filter>
    <polygon id="SVGID_1_" points="66.3,5.2 27.3,58.9 117.1,164.8 206.7,59.2 167.7,5.2 117.1,0 		"/>
  </defs>
  <clipPath filter="url(#noise)" id="SVGID_2_">
  <use xlink:href="#SVGID_1_"  overflow="visible"/>
	</clipPath>
	<g filter="url(#noise)" clip-path="url(#SVGID_2_)">
		<path fill="#F5E59E" d="M59.6,196c0.2-0.2,0.5-0.2,0.8-0.2c3.5,0,7,0,10.5,0c0.2,0,0.5,0,0.6,0.2C67.5,196,63.6,196,59.6,196z"/>
		<path fill="#F5E59E" d="M163.2,196c0.2-0.1,0.3-0.2,0.5-0.2c3.6,0,7.2,0,10.8,0c0.2,0,0.5,0,0.6,0.2
			C171.2,196,167.2,196,163.2,196z"/>
		<path fill="#F5E59E" d="M0,124.7c0.3,3.9,0.4,7.8,0,11.7C0,132.5,0,128.6,0,124.7z"/>
		<path fill="#F89314" d="M118.3,163.6c-0.9,1.2-0.9,1.2-1.8,0c0.4-0.4-0.1-0.7-0.2-1c-1.7-3.3-3.4-6.7-5.1-10c-3-5.9-6-11.8-9-17.7
			c-2.9-5.8-5.8-11.5-8.7-17.3c-3-5.9-5.9-11.7-8.9-17.6c-4.6-9-9.1-18.1-13.7-27.1c-2.3-4.6-4.7-9.3-7-13.9c0.1,0,0.2,0,0.3,0
			c0.3,0,0.7,0,1,0c34.8,0,69.5,0,104.3,0c0.3,0,0.7,0,1,0c0.1,0,0.2,0,0.3,0c-1.2,2.6-2.6,5.2-3.9,7.8c-3,5.8-5.9,11.6-8.8,17.4
			c-2.9,5.8-5.9,11.6-8.9,17.5c-3,6-6.1,12-9.1,18c-2.8,5.4-5.5,10.9-8.3,16.3c-4.5,8.9-8.9,17.7-13.4,26.6
			C118.3,162.9,117.9,163.2,118.3,163.6z"/>
		<path fill="#F5E59E" d="M170.5,59.1c-0.3,0-0.7,0-1,0c-34.8,0-69.5,0-104.3,0c-0.3,0-0.7,0-1,0c-0.1-0.1-0.1-0.3-0.2-0.4
			c1.2-1.2,2.4-2.5,3.5-3.7c4.8-5.3,9.5-10.5,14.3-15.7c4.7-5.2,9.4-10.3,14.1-15.5c6.1-6.7,12.3-13.4,18.4-20.1
			c1-1.1,2.2-2,2.8-3.4c0.2-0.2,0.3-0.2,0.5,0c0,0.3,0.2,0.6,0.4,0.8c4.1,4.5,8.2,9,12.3,13.5c3.6,3.9,7.2,7.9,10.8,11.8
			c6.2,6.8,12.4,13.6,18.6,20.4c1.9,2.1,3.8,4.3,5.8,6.4c1.7,1.9,3.4,3.8,5.2,5.6C170.7,58.8,170.6,59,170.5,59.1z"/>
		<path fill="#E74806" d="M63.9,59.1c2.3,4.6,4.7,9.3,7,13.9c4.6,9,9.1,18.1,13.7,27.1c3,5.9,5.9,11.7,8.9,17.6
			c2.9,5.8,5.8,11.5,8.7,17.3c3,5.9,6,11.8,9,17.7c1.7,3.3,3.4,6.7,5.1,10c0.1,0.3,0.6,0.6,0.2,1c-7.1-8.3-14.2-16.6-21.3-24.9
			c-10.8-12.6-21.5-25.3-32.3-37.9C51.7,87.6,40.5,74.4,29.2,61.2c-0.6-0.7-1.1-1.4-1.7-2.1C39.6,59.1,51.8,59.1,63.9,59.1z"/>
		<path fill="#E74806" d="M118.3,163.6c-0.4-0.4,0.1-0.7,0.2-1c4.5-8.9,8.9-17.7,13.4-26.6c2.8-5.5,5.5-10.9,8.3-16.3
			c3-6,6.1-12,9.1-18c2.9-5.8,5.9-11.6,8.9-17.5c2.9-5.8,5.8-11.6,8.8-17.4c1.3-2.6,2.7-5.1,3.9-7.8c12.1,0,24.3,0,36.4,0
			c-2.6,3-5.1,6.1-7.7,9.1c-10.8,12.7-21.7,25.5-32.5,38.2c-11.2,13.1-22.4,26.3-33.6,39.4C128.4,151.7,123.3,157.7,118.3,163.6z"/>
		<path fill="#F0C12B" d="M117.1,0.3c-0.6,1.4-1.8,2.3-2.8,3.4c-6.1,6.7-12.2,13.4-18.4,20.1c-4.7,5.1-9.4,10.3-14.1,15.5
			c-4.8,5.2-9.6,10.5-14.3,15.7c-1.1,1.3-2.3,2.6-3.5,3.7c0-0.4-0.1-0.8-0.1-1.3c0.1-2.4,0.4-4.8,0.4-7.2c0.1-2.9,0.3-5.7,0.4-8.5
			c0.2-4.4,0.5-8.9,0.7-13.3c0.1-2.8,0.3-5.6,0.5-8.4c0.2-4.3,0.4-8.7,0.7-13c0-0.4,0.1-0.8-0.2-1.1c1.2-0.7,2.6-0.5,4-0.7
			c4.9-0.6,9.9-1.1,14.8-1.6c4.7-0.5,9.4-0.9,14.1-1.4c4.6-0.5,9.3-1,13.9-1.6C114.6,0.5,115.9,0.4,117.1,0.3z"/>
		<path fill="#F0C12B" d="M170.7,58.7c-1.9-1.7-3.5-3.7-5.2-5.6c-2-2.1-3.8-4.2-5.8-6.4c-6.2-6.8-12.4-13.6-18.6-20.4
			c-3.6-3.9-7.2-7.9-10.8-11.8c-4.1-4.5-8.2-9-12.3-13.5c-0.2-0.2-0.4-0.4-0.4-0.8c2.6,0.3,5.2,0.4,7.8,0.8c2.3,0.3,4.5,0.3,6.8,0.7
			c2,0.3,4,0.2,6,0.7c1.8,0.4,3.7,0.5,5.6,0.7c2.4,0.3,4.8,0.5,7.2,0.7c1.2,0.1,2.4,0.2,3.5,0.5c0.8,0.2,1.9,0.1,2.9,0.2
			c2.4,0.2,4.8,0.3,7.1,0.8c1,0.2,2.3-0.3,3.1,0.6c0.3,0.6,0.6,1.2,0.7,1.9c0,3.1,0.3,6.2,0.4,9.3c0.2,2.8,0.3,5.5,0.5,8.3
			c0.3,4.6,0.5,9.2,0.7,13.8c0.1,2.2,0.2,4.4,0.3,6.6c0.1,1.6,0.1,3.2,0.2,4.8C170.6,53.3,170.9,56,170.7,58.7z"/>
		<path fill="#F89414" d="M170.7,58.7c0.2-2.7-0.2-5.4-0.4-8.1c-0.1-1.6-0.1-3.2-0.2-4.8c-0.1-2.2-0.3-4.4-0.3-6.6
			c-0.1-4.6-0.4-9.2-0.7-13.8c-0.2-2.8-0.3-5.5-0.5-8.3c-0.2-3.1-0.4-6.2-0.4-9.3c0-0.7-0.3-1.3-0.7-1.9c0.7-0.2,1,0.3,1.3,0.7
			c6,8.2,12.1,16.4,18.1,24.6c6.6,8.9,13.1,17.8,19.7,26.7c0.2,0.3,0.7,0.6,0.6,1.1c-12.1,0-24.3,0-36.4,0c-0.1,0-0.2,0-0.3,0
			C170.6,59,170.7,58.8,170.7,58.7z"/>
		<path fill="#F89414" d="M66.5,5.9c0.3,0.3,0.2,0.7,0.2,1.1c-0.3,4.3-0.5,8.7-0.7,13c-0.1,2.8-0.3,5.6-0.5,8.4
			c-0.2,4.4-0.5,8.9-0.7,13.3c-0.1,2.8-0.4,5.7-0.4,8.5c-0.1,2.4-0.3,4.8-0.4,7.2c0,0.4,0,0.8,0.1,1.3c0.1,0.1,0.1,0.3,0.2,0.4
			c-0.1,0-0.2,0-0.3,0c-12.1,0-24.3,0-36.4,0c-0.2-0.5,0.3-0.7,0.5-1C40.6,40.9,53.2,23.8,65.8,6.7C66.1,6.4,66.3,6.2,66.5,5.9z"/>
		<path fill="#F5E59E" d="M234.6,136.1c0-3.7,0-7.4,0-11.1c0,0,0.1,0,0.1,0C234.7,128.6,234.7,132.4,234.6,136.1
			C234.6,136.1,234.6,136.1,234.6,136.1z"/>
		<path fill="#F5E59E" d="M234.4,140.9c0-1.1,0-2.2,0-3.3c0,0,0.1,0,0.1,0C234.4,138.7,234.4,139.8,234.4,140.9
			C234.4,140.9,234.4,140.9,234.4,140.9z"/>
		<path fill="#F5E59E" d="M58.3,195.7c-1.1,0-2.2,0-3.3,0c0,0,0-0.1,0-0.1c1.1,0,2.2,0,3.4,0C58.4,195.6,58.4,195.6,58.3,195.7z"/>
		<path fill="#F5E59E" d="M176.4,195.5c1.1,0,2.2,0,3.3,0c0,0,0,0.1,0,0.1c-1.1,0-2.2,0-3.3,0C176.4,195.6,176.4,195.6,176.4,195.5z
			"/>
		<path fill="#F5E59E" d="M0.3,140.6c0-1,0-2,0-3.1c0,0,0.1,0,0.1,0C0.4,138.6,0.4,139.6,0.3,140.6C0.3,140.6,0.3,140.6,0.3,140.6z"
			/>
	</g>

</svg>
