<svg version="1.1" 
  xmlns="http://www.w3.org/2000/svg" 
  xmlns:xlink="http://www.w3.org/1999/xlink" 
  xmlns:a="http://ns.adobe.com/AdobeSVGViewerExtensions/3.0/" x="0px" y="0px" viewBox="-17 -17 192 192" enable-background="new 0 0 400 400" xml:space="preserve">
  <defs>
    <filter id="noise">
      <feTurbulence type="fractalNoise" baseFrequency="0.15" result="noisy" />
      <feDisplacementMap in="SourceGraphic" in2="noisy" scale="6" xChannelSelector="G" yChannelSelector="R"/>
    </filter>
    <rect id="SVGID_1_" y="0.1" width="157.7" height="157.7"/>
  </defs>
  <clipPath filter="url(#noise)" id="SVGID_2_">
    <use xlink:href="#SVGID_1_" overflow="visible"/>
  </clipPath>
  <g filter="url(#noise)" clip-path="url(#SVGID_2_)">
    <g id="background_1_">
			<path fill="#FF9900" d="M6.3,0h144.4c3.5,0,6.3,2.8,6.3,6.3v144.4c0,3.5-2.8,6.3-6.3,6.3H6.3c-3.5,0-6.3-2.8-6.3-6.3V6.3
				C0,2.8,2.8,0,6.3,0z"/>
		</g>
		<g id="top-left_1_">
			<path fill="#FFB13B" d="M6.3,0h65.9c3.5,0,6.3,2.8,6.3,6.3v65.9c0,3.5-2.8,6.3-6.3,6.3H6.3c-3.5,0-6.3-2.8-6.3-6.3V6.3
				C0,2.8,2.8,0,6.3,0z"/>
		</g>
		<g id="bottom-right_1_">
			<path fill="#DE8500" d="M84.8,78.5h65.9c3.5,0,6.3,2.8,6.3,6.3v65.9c0,3.5-2.8,6.3-6.3,6.3H84.8c-3.5,0-6.3-2.8-6.3-6.3V84.8
				C78.5,81.3,81.3,78.5,84.8,78.5z"/>
		</g>
		<g id="circles_1_">
			<g id="n_1_">
				<circle fill="#FF9900" cx="78.5" cy="28.9" r="28.9"/>
			</g>
			<g id="ne_1_">
				<circle fill="#FF9900" cx="113.7" cy="43.3" r="28.9"/>
			</g>
			<g id="e_1_">
				<circle fill="#FF9900" cx="128.1" cy="78.5" r="28.9"/>
			</g>
			<g id="se_1_">
				<circle fill="#FF9900" cx="113.7" cy="113.7" r="28.9"/>
			</g>
			<g id="s_1_">
				<circle fill="#FF9900" cx="78.5" cy="128.1" r="28.9"/>
			</g>
			<g id="sw_1_">
				<circle fill="#FF9900" cx="43.3" cy="113.7" r="28.9"/>
			</g>
			<g id="w_1_">
				<circle fill="#FF9900" cx="28.9" cy="78.5" r="28.9"/>
			</g>
			<g id="nw_1_">
				<circle fill="#FF9900" cx="43.3" cy="43.3" r="28.9"/>
			</g>
		</g>
		<g id="stars_1_">
			<g id="black-star_1_">
				<path d="M99,28.9c0-11.3-9.2-20.5-20.6-20.5c-11.4,0-20.6,9.2-20.6,20.5c-8-8-21-8-29,0c-8,8-8,21.1,0,29.1
					c-11.4,0-20.6,9.2-20.6,20.5c0,11.4,9.2,20.6,20.6,20.6c-8,8-8,21,0,29.1c8,8,21,8,29,0c0,11.3,9.2,20.5,20.6,20.5
					c11.4,0,20.6-9.2,20.6-20.5c8,8,21.1,8,29.1,0c8-8,8-21.1,0-29.1c11.3,0,20.5-9.2,20.5-20.6c0-11.3-9.2-20.5-20.5-20.5
					c8-8,8-21,0-29.1C120.1,20.8,107.1,20.8,99,28.9z"/>
			</g>
			<g id="white-star_1_">
				<path fill="#FFFFFF" d="M86.4,36.7v22.7l16.1-16.1c0-2.8,1.1-5.7,3.2-7.9c4.4-4.4,11.4-4.4,15.7,0c4.4,4.3,4.4,11.4,0,15.7
					c-2.2,2.2-5,3.3-7.9,3.3L97.5,70.6h22.7c2-2,4.8-3.3,7.9-3.3c6.1,0,11.1,5,11.1,11.1c0,6.1-5,11.1-11.1,11.1
					c-3.1,0-5.8-1.3-7.9-3.3H97.5l16.1,16.1c2.9,0,5.7,1.1,7.9,3.3c4.4,4.3,4.4,11.4,0,15.7c-4.3,4.4-11.4,4.4-15.7,0
					c-2.2-2.2-3.2-5-3.2-7.9L86.3,97.5v22.8c2,2,3.3,4.8,3.3,7.9c0,6.1-5,11.1-11.1,11.1c-6.2,0-11.1-5-11.1-11.1
					c0-3.1,1.3-5.9,3.3-7.9V97.5l-16.1,16.1c0,2.8-1.1,5.7-3.3,7.9c-4.3,4.4-11.4,4.4-15.7,0c-4.4-4.3-4.4-11.4,0-15.7
					c2.2-2.2,5-3.3,7.9-3.3l16.1-16.1H36.8c-2,2-4.8,3.3-7.9,3.3c-6.1,0-11.1-5-11.1-11.1c0-6.1,5-11.1,11.1-11.1
					c3,0,5.8,1.2,7.9,3.3h22.7L43.4,54.5c-2.8,0-5.7-1.1-7.9-3.3c-4.4-4.4-4.4-11.4,0-15.7c4.4-4.4,11.4-4.4,15.7,0
					c2.2,2.2,3.3,5,3.3,7.9l16.1,16.1V36.7c-2-2-3.3-4.8-3.3-7.9c0-6.1,5-11.1,11.1-11.1c6.2,0,11.1,5,11.1,11.1
					C89.6,32,88.4,34.7,86.4,36.7z"/>
			</g>
		</g>
		<g id="svg-textbox_1_">
			<g id="text-backdrop_1_">
				<path d="M8.3,78.5h140.3v62.8c0,5.2-2.6,7.8-7.8,7.8H16.2c-5.2,0-7.8-2.6-7.8-7.8V78.5z"/>
			</g>
			<g id="shine_1_">
				<path fill="#3F3F3F" d="M23,85.1h112.1c4.6,0,8.3,3.7,8.3,8.3v28.1c-43.3-5.3-86.2-12.8-128.8-12.1V93.5
					C14.7,88.9,18.4,85.1,23,85.1L23,85.1z"/>
			</g>
			<g id="svg-text_1_">
				<title>SVG</title>
				<g id="S_1_">
					<path fill="#FFFFFF" d="M28.7,114.5c-3.3-3.3-5.3-7.9-5.3-13c0-10.1,8.2-18.3,18.3-18.3c10.1,0,18.3,8.2,18.3,18.3H49.3
						c0-4.2-3.4-7.6-7.6-7.6c-4.2,0-7.6,3.4-7.6,7.6c0,2.1,0.9,4,2.2,5.4l0,0c1.4,1.4,3.3,2.2,5.4,2.2v0c5.1,0,9.6,2.1,12.9,5.4l0,0
						c3.3,3.3,5.4,7.9,5.4,12.9c0,10.1-8.2,18.3-18.3,18.3c-10.1,0-18.3-8.2-18.3-18.3h10.7c0,4.2,3.4,7.6,7.6,7.6
						c4.2,0,7.6-3.4,7.6-7.6c0-2.1-0.9-4-2.2-5.3l0,0c-1.4-1.4-3.3-2.2-5.3-2.2l0,0C36.6,119.9,32.1,117.8,28.7,114.5L28.7,114.5
						L28.7,114.5z"/>
					<path d="M41.7,145.9c-10.1,0-18.4-8.3-18.4-18.4v-0.1h10.9v0.1c0,4.1,3.4,7.5,7.5,7.5c4.1,0,7.5-3.4,7.5-7.5
						c0-2-0.8-3.9-2.2-5.3c-1.4-1.4-3.3-2.2-5.3-2.2c-4.9,0-9.5-1.9-13-5.4v0c-3.5-3.5-5.4-8.1-5.4-13c0-10.1,8.2-18.4,18.4-18.4
						c10.1,0,18.4,8.3,18.4,18.4v0.1H49.2v-0.1c0-4.1-3.4-7.5-7.5-7.5c-4.1,0-7.5,3.4-7.5,7.5c0,2,0.8,3.9,2.2,5.3
						c1.4,1.4,3.3,2.2,5.3,2.2h0.1v0c4.9,0,9.5,1.9,12.9,5.4c3.5,3.5,5.4,8.1,5.4,13C60.1,137.6,51.9,145.9,41.7,145.9z M23.5,127.5
						c0,10,8.2,18.2,18.2,18.2c10.1,0,18.2-8.2,18.2-18.3c0-4.9-1.9-9.5-5.4-12.9c-3.4-3.4-8-5.3-12.9-5.3h-0.1v0
						c-2,0-3.9-0.8-5.4-2.2c-1.4-1.5-2.2-3.4-2.2-5.4c0-4.2,3.4-7.7,7.7-7.7c4.2,0,7.6,3.4,7.7,7.6H60c0-10-8.2-18.2-18.2-18.2
						c-10.1,0-18.2,8.2-18.2,18.3c0,4.9,1.9,9.5,5.3,12.9c3.5,3.5,8.1,5.4,12.9,5.4c2,0,4,0.8,5.4,2.2c1.5,1.5,2.3,3.4,2.3,5.4
						c0,4.2-3.4,7.7-7.7,7.7c-4.2,0-7.6-3.4-7.7-7.6H23.5z"/>
				</g>
				<g id="V_1_">
					<polygon fill="#FFFFFF" points="96.7,83.2 83.8,145.8 73,145.8 60,83.2 70.8,83.2 78.4,119.9 86,83.2 					"/>
					<path d="M83.8,145.9H72.9l0-0.1l-13-62.6h10.9l0,0.1l7.5,36.3l7.5-36.4h10.9l0,0.1L83.8,145.9z M73.1,145.7h10.6l12.9-62.4H86
						l-7.6,36.6h-0.1l-7.6-36.6H60.1L73.1,145.7z"/>
				</g>
				<g id="G_1_">
					<path fill="#FFFFFF" d="M115,109.1h18.3v18.3l0,0c0,10.1-8.2,18.3-18.3,18.3c-10.1,0-18.3-8.2-18.3-18.3l0,0v-25.9h0
						c0-10.1,8.2-18.3,18.3-18.3c10.1,0,18.3,8.2,18.3,18.3h-10.8c0-4.2-3.4-7.6-7.6-7.6c-4.2,0-7.6,3.4-7.6,7.6v25.9l0,0
						c0,4.2,3.4,7.6,7.6,7.6c4.2,0,7.6-3.4,7.6-7.6v0v-7.6H115L115,109.1L115,109.1z"/>
					<path d="M115,145.9c-10.1,0-18.4-8.3-18.4-18.4v-25.8h0v-0.1c0-10.1,8.2-18.4,18.4-18.4c10.2,0,18.4,8.3,18.4,18.4v0.1h-10.9
						v-0.1c0-4.1-3.4-7.5-7.5-7.5c-4.1,0-7.5,3.4-7.5,7.5v25.9c0,4.1,3.4,7.5,7.5,7.5c4.1,0,7.5-3.4,7.5-7.5v-7.5h-7.6l0-10.9h18.5
						v18.4C133.4,137.6,125.2,145.9,115,145.9z M96.8,101.5L96.8,101.5l0,26c0,10.1,8.2,18.3,18.2,18.3c10.1,0,18.2-8.2,18.2-18.3
						v-18.2h-18.2l0,10.6h7.6v7.7c0,4.2-3.4,7.6-7.7,7.6c-4.2,0-7.6-3.4-7.6-7.7v-25.9c0-4.2,3.4-7.7,7.6-7.7c4.2,0,7.6,3.4,7.7,7.6
						h10.6c0-10-8.2-18.2-18.3-18.2C105,83.3,96.8,91.4,96.8,101.5z"/>
				</g>
			</g>
		</g>
  </g>
</svg>