<?xml version="1.0" encoding="utf-8"?>
<!-- Generator: Adobe Illustrator 21.1.0, SVG Export Plug-In . SVG Version: 6.00 Build 0)  -->
<svg version="1.1" id="圖層_1" xmlns="http://www.w3.org/2000/svg" xmlns:xlink="http://www.w3.org/1999/xlink" x="0px" y="0px"
	 width="676px" height="666px" viewBox="0 0 676 666" enable-background="new 0 0 676 666" xml:space="preserve">
<g>
	<defs>
		<path id="SVGID_1_" d="M625.1,608H50.9C22.8,608,0,585.2,0,557.1V50.9C0,22.8,22.8,0,50.9,0h582.6C657,0,676,19,676,42.4v514.6
			C676,585.2,653.2,608,625.1,608z"/>
	</defs>
	<clipPath id="SVGID_2_">
		<use xlink:href="#SVGID_1_"  overflow="visible"/>
	</clipPath>
	<image overflow="visible" clip-path="url(#SVGID_2_)" width="676" height="608" xlink:href="leave background-01.jpg" >
	</image>
</g>
<circle fill="#49423D" cx="338" cy="607.5" r="58"/>
<path fill="#FFFFFF" d="M357,594.5c2.2,0,4,1.9,3.9,4.1c0,0.9-0.3,1.7-0.8,2.4l-19,24.1c-1.4,1.7-3.9,2-5.6,0.6
	c-0.2-0.2-0.4-0.4-0.6-0.6l-19-24.1c-1.3-1.8-1-4.3,0.7-5.6c0.7-0.5,1.5-0.8,2.4-0.8H357z"/>
<g>
                   <path d="M676,471H0v52.7c0,27.8,34.3,60.9,79,66.3S179,596,220.8,605.2c83.7,18.4,71,29.8,118.2,29.8s40.2-15.2,137.7-32.5c42.7-7.6,86.3-9.9,121.7-14.3,45.4-5.6,77.5-37.5,77.5-64.6Z" fill="#4b4441" opacity="0.14" />
                  <path d="M.1,471v53.7c0,55.5,137.1,40,220.8,58.4S291.8,635,339,635s40.3-37.4,137.8-54.6S676,572.8,676,524.7V471Z" fill="#4b4441" opacity="0.14" />
                </g>
</svg>
